<svg width="314" height="166" viewBox="0 0 314 166" fill="none" xmlns="http://www.w3.org/2000/svg">
<path d="M158.647 29.4431C174.458 24.3562 190.165 19.22 206.058 14.362C219.224 10.2981 232.552 6.69204 246.048 3.79967C255.308 1.80673 264.6 0.146069 274.101 0.0433549C278.121 -0.00701199 282.249 0.247874 286.306 0.785744C292.982 1.68378 298.999 4.36099 304.25 8.51216C309.006 12.2374 312.092 17.0697 313.024 23.0948C313.688 27.1534 312.888 30.9581 311.189 34.6515C308.85 39.6887 305.705 44.1522 301.913 48.2442C294.254 56.4543 285.78 63.579 276.416 69.645C263.762 77.8214 250.738 85.4417 237.346 92.506C224.259 99.4615 211.145 106.341 197.847 112.942C188.557 117.522 178.948 121.442 169.524 125.64C166.552 126.951 163.579 128.262 160.683 129.545C157.253 131.018 153.849 132.568 150.343 134.068C140.788 138.141 131.157 142.24 121.575 146.236C111.89 150.183 102.065 153.493 91.9748 156.295C82.369 159.011 72.7317 161.396 62.8509 163.093C53.2264 164.785 43.4891 165.917 33.6741 165.616C28.881 165.425 24.1325 164.874 19.446 163.529C15.8155 162.497 12.3823 161.051 9.26709 158.805C3.27053 154.489 0.192243 148.709 0.130859 141.259C0.148788 136.701 1.11921 132.407 2.80847 128.202C5.37577 121.623 9.1341 115.741 13.5667 110.305C19.4752 102.973 26.3235 96.5958 33.6393 90.5684C43.7288 82.1842 54.7404 75.1907 66.094 68.6778C80.3884 60.5211 95.2944 53.6079 110.547 47.4306C126.515 41.0857 142.621 35.3789 158.647 29.4431Z" fill="#EE8DB9"/>
<mask id="mask0_402_3" style="mask-type:alpha" maskUnits="userSpaceOnUse" x="0" y="0" width="314" height="166">
<path d="M158.647 29.4431C174.458 24.3562 190.165 19.22 206.058 14.362C219.224 10.2981 232.552 6.69204 246.048 3.79967C255.308 1.80673 264.6 0.146069 274.101 0.0433549C278.121 -0.00701199 282.249 0.247874 286.306 0.785744C292.982 1.68378 298.999 4.36099 304.25 8.51216C309.006 12.2374 312.092 17.0697 313.024 23.0948C313.688 27.1534 312.888 30.9581 311.189 34.6515C308.85 39.6887 305.705 44.1522 301.913 48.2442C294.254 56.4543 285.78 63.579 276.416 69.645C263.762 77.8214 250.738 85.4417 237.346 92.506C224.259 99.4615 211.145 106.341 197.847 112.942C188.557 117.522 178.948 121.442 169.524 125.64C166.552 126.951 163.579 128.262 160.683 129.545C157.253 131.018 153.849 132.568 150.343 134.068C140.788 138.141 131.157 142.24 121.575 146.236C111.89 150.183 102.065 153.493 91.9748 156.295C82.369 159.011 72.7317 161.396 62.8509 163.093C53.2264 164.785 43.4891 165.917 33.6741 165.616C28.881 165.425 24.1325 164.874 19.446 163.529C15.8155 162.497 12.3823 161.051 9.26709 158.805C3.27053 154.489 0.192243 148.709 0.130859 141.259C0.148788 136.701 1.11921 132.407 2.80847 128.202C5.37577 121.623 9.1341 115.741 13.5667 110.305C19.4752 102.973 26.3235 96.5958 33.6393 90.5684C43.7288 82.1842 54.7404 75.1907 66.094 68.6778C80.3884 60.5211 95.2944 53.6079 110.547 47.4306C126.515 41.0857 142.621 35.3789 158.647 29.4431Z" fill="black"/>
</mask>
<g mask="url(#mask0_402_3)">
<path fill-rule="evenodd" clip-rule="evenodd" d="M228.029 -20.5872C227.178 -18.916 226.32 -17.2613 225.463 -15.6065L225.463 -15.6059C224.606 -13.951 223.748 -12.2961 222.897 -10.6247C215.915 3.1025 208.399 16.5749 199.365 29.1046C196.199 33.5198 192.827 37.7656 189.464 42.0015L189.459 42.0069C188.666 43.0067 187.873 44.0055 187.083 45.0059C185.51 47.0441 183.689 48.7997 181.419 50.1223C177.663 52.2676 173.792 51.788 170.777 48.7104C169.134 46.9976 167.971 44.9663 167.004 42.8654C164.797 38.0953 163.467 33.0877 162.621 27.9828C162.106 24.9193 161.669 21.8545 161.23 18.785L161.23 18.7833C160.929 16.6724 160.627 14.5594 160.3 12.4432C160.022 10.6164 159.548 8.85947 158.985 7.06013C158.309 5.15245 157.376 4.8168 155.674 5.86396C154.649 6.52328 153.648 7.24832 152.871 8.18993C152.605 8.49903 152.338 8.80718 152.072 9.11495C150.135 11.3532 148.218 13.5688 146.595 15.9665C141.548 23.4553 136.615 31.0522 131.836 38.6686C124.555 50.3075 117.335 62.0054 110.121 73.692L110.121 73.6931C107.548 77.861 104.976 82.0274 102.403 86.1895C100.452 89.2495 98.3888 92.2019 96.2593 95.1774C95.1622 96.6766 93.9522 98.0677 92.7192 99.3935C91.8533 100.292 90.8092 101.106 89.6955 101.723C86.485 103.527 83.6663 102.675 81.7311 99.5107C80.3194 97.1974 79.7205 94.6705 79.3186 92.0735C78.267 85.9497 78.1974 79.8072 78.1278 73.6834C78.1236 73.3168 78.1198 72.9507 78.115 72.584C78.1043 71.9947 78.0936 71.407 78.0834 70.8204C78.0315 67.8936 77.9807 64.9926 77.8512 62.0166C77.8431 61.8908 77.8372 61.7629 77.8308 61.6344C77.7869 60.7272 77.7409 59.7707 77.0891 59.0289C76.0326 59.1809 75.383 59.8553 74.7996 60.5067C73.2225 62.3238 71.6453 64.141 70.3588 66.1519C66.4997 72.1836 62.7059 78.1923 59.0475 84.3745C55.1017 91.1036 51.1901 97.8755 47.2781 104.648L47.2775 104.649C43.366 111.421 39.4544 118.193 35.5086 124.921C32.8783 129.406 30.0038 133.831 27.0404 138.212C25.8577 139.969 24.4034 141.64 22.9713 143.285C22.8174 143.463 22.6637 143.639 22.5108 143.815C21.8847 144.556 20.9913 145.168 20.1171 145.626C18.6743 146.359 17.4273 145.765 16.9571 144.228C16.6967 143.284 16.5445 142.227 16.6363 141.232C16.7498 139.045 16.9058 136.769 17.3057 134.554C17.4276 133.898 17.5484 133.242 17.6691 132.586C18.4815 128.176 19.2895 123.79 20.3998 119.465C22.3732 111.946 24.405 104.434 26.4388 96.9148L26.4393 96.9132C27.7171 92.1891 28.9956 87.4618 30.261 82.7286C30.4651 81.8417 30.7582 80.9976 31.0747 80.2193C31.2089 79.9378 31.4049 79.6637 31.5905 79.4047C31.6986 79.2537 31.8031 79.1076 31.8899 78.9679C31.9789 79.0102 32.068 79.053 32.1804 79.1611C32.1496 79.2832 32.141 79.4154 32.1325 79.5481C32.1239 79.6809 32.1154 79.8136 32.0845 79.9356C27.9367 94.1395 24.2999 108.532 21.151 123.049C20.2247 127.351 19.5123 131.754 18.8057 136.122C18.7223 136.637 18.6391 137.151 18.5556 137.665C18.3593 138.833 18.3732 140.026 18.3873 141.238C18.3903 141.497 18.3934 141.756 18.3943 142.016C18.3707 142.383 18.4524 142.747 18.5616 143.235C18.6104 143.453 18.6649 143.696 18.7179 143.974C18.9266 143.82 19.1288 143.678 19.321 143.543L19.3212 143.543C19.8306 143.186 20.2688 142.879 20.5663 142.505C20.9108 142.102 21.2653 141.7 21.6214 141.296L21.622 141.295C22.6718 140.104 23.7359 138.898 24.6013 137.596C25.1057 136.82 25.6105 136.045 26.115 135.271L26.1193 135.265C29.3035 130.378 32.473 125.515 35.4262 120.508C40.2117 112.391 44.9383 104.247 49.6692 96.0943C53.1216 90.145 56.5761 84.1919 60.0584 78.2416C62.3628 74.2973 64.8835 70.4966 67.4191 66.6733C67.8242 66.0626 68.2299 65.4508 68.635 64.8379C69.7284 63.1176 71.0888 61.5253 72.4492 59.9324C73.1839 59.0797 74.0306 58.3357 74.9008 57.657C76.8381 56.2306 78.6154 56.8595 79.3416 59.1193C79.6911 60.1058 79.8436 61.1624 79.9297 62.2425C80.0271 64.6318 80.101 67.0292 80.1749 69.4116C80.2246 71.0313 80.2744 72.644 80.3311 74.2422C80.3563 74.9546 80.3787 75.6676 80.4018 76.3816V76.3859C80.55 81.0185 80.6982 85.6735 81.4919 90.267C81.8853 92.4225 82.4568 94.6635 83.2451 96.6793C84.5921 100.274 86.7874 100.829 89.6527 98.2588C91.4541 96.6579 93.1629 94.7941 94.5382 92.826C97.7648 88.3508 100.879 83.768 103.815 79.0996C108.787 71.194 113.752 63.2718 118.718 55.3496L118.719 55.3469C123.686 47.4236 128.651 39.5003 133.624 31.5938C137.332 25.7635 141.131 19.9757 145.04 14.2961C146.845 11.6577 148.874 9.23597 150.993 6.85663C152.052 5.66698 153.312 4.62801 154.708 3.76311C157.435 2.05663 159.766 2.78553 161.167 5.69492C162.328 8.20652 162.729 10.8626 163.138 13.5634C163.174 13.804 163.21 14.045 163.247 14.2862C163.432 15.4189 163.615 16.5562 163.798 17.6954C164.43 21.6239 165.064 25.576 165.804 29.4461C166.754 34.218 168.188 38.8923 170.453 43.1984C170.958 44.2041 171.57 45.098 172.314 45.9447C174.664 48.8142 177.61 49.3992 180.75 47.3979C182.452 46.351 184.06 45.0402 185.312 43.5602C188.424 40.0147 191.512 36.4029 194.399 32.6408C203.079 21.1993 210.77 8.84935 217.994 -3.7788L227.031 -19.6414C227.102 -19.7553 227.179 -19.8713 227.257 -19.9899L227.258 -19.9908C227.44 -20.2673 227.632 -20.558 227.781 -20.8695C227.811 -20.8406 227.839 -20.8164 227.865 -20.794L227.866 -20.7936C227.938 -20.732 227.995 -20.6835 228.029 -20.5872ZM67.5278 127.124C67.3993 127.318 67.2677 127.504 67.1365 127.691C66.8738 128.064 66.611 128.437 66.3691 128.867L66.368 128.869C63.4214 134.133 60.4748 139.397 57.617 144.703C55.8702 147.951 54.1373 151.207 52.4034 154.465L52.4023 154.466C49.8394 159.281 47.2738 164.102 44.6525 168.916C40.7051 176.164 36.2895 183.133 31.138 189.696C30.3906 190.675 29.5697 191.618 28.6773 192.643L28.6768 192.644C28.1806 193.214 27.6623 193.81 27.1222 194.451C27.0875 194.21 27.051 194.013 27.0204 193.848C26.9618 193.531 26.9253 193.334 26.9659 193.174C27.07 192.841 27.3056 192.461 27.5646 192.147C36.8048 179.989 44.1232 166.586 51.1982 153.122C54.9797 145.969 58.888 138.979 62.8397 131.913L63.2132 131.245C64.3451 129.215 65.6547 127.27 66.9648 125.325C67.8034 124.14 68.6115 123.705 69.2585 124.068C70.195 124.674 70.0468 125.595 69.9103 126.441L69.8996 126.506C69.6149 128.023 69.2713 129.534 68.9256 131.051C68.7115 131.992 68.4964 132.936 68.2947 133.886C67.7632 136.147 67.2147 138.407 66.6656 140.666C65.5685 145.184 64.4714 149.703 63.5113 154.238C62.6802 158.161 62.1814 162.187 61.7255 166.124C61.5933 167.372 61.6709 168.691 61.7479 170.003C61.78 170.552 61.8122 171.1 61.8288 171.64C61.8362 171.692 61.8432 171.742 61.8502 171.791C61.8898 172.077 61.924 172.327 62.0235 172.608C62.5598 174.121 63.3609 174.503 64.7385 173.793C65.6782 173.312 66.5714 172.699 67.2634 171.936C69.297 169.735 71.3066 167.468 73.1154 165.05C77.7452 158.8 81.6996 152.13 85.6352 145.492C85.8027 145.209 85.9702 144.926 86.1377 144.643L86.3432 144.298C96.4873 127.377 106.964 110.56 118.448 94.4971C125.868 84.0945 133.6 73.951 142.429 64.6035C145.328 61.5033 148.363 58.5771 151.758 56.0416C153.348 54.886 154.961 53.7963 156.825 53.2096C159.438 52.4325 161.284 53.2584 161.996 55.8939C162.373 57.1667 162.552 58.5102 162.446 59.8804C162.424 60.116 162.402 60.3515 162.381 60.5875C162.129 63.3451 161.873 66.1482 161.334 68.8624C159.918 75.5209 158.366 82.1815 156.816 88.8315V88.8325L156.815 88.8384C156.39 90.6631 155.965 92.4872 155.543 94.3103C152.994 105.504 150.623 116.784 149.425 128.239C148.973 132.397 148.676 136.575 148.975 140.763C149.065 142.063 149.245 143.406 149.556 144.703C149.747 145.449 150.069 146.15 150.457 146.827C150.845 147.504 151.445 147.736 152.145 147.413C152.298 147.331 152.452 147.251 152.606 147.171C153.261 146.831 153.9 146.499 154.393 146.025C156.016 144.339 157.639 142.653 159.038 140.751C162.443 136.361 165.178 131.542 167.847 126.747C173.483 116.741 178.615 106.399 183.731 96.0884L183.745 96.0594C184.11 95.323 184.476 94.5859 184.841 93.8494C185.745 92.0285 186.643 90.2049 187.542 88.3819L187.546 88.3728C192.274 78.7795 196.999 69.1916 202.37 59.9495C204.209 56.7808 206.202 53.6314 208.219 50.5473C209.293 48.9822 210.545 47.5023 211.755 46.1112C212.338 45.4598 213.1 44.894 213.843 44.483C215.502 43.5243 216.923 43.9836 217.641 45.8023C218.08 46.8311 218.256 47.9535 218.342 49.0336C218.573 52.3067 218.728 55.5712 218.882 58.8244C218.95 60.2374 219.017 61.6484 219.09 63.0577C219.331 67.71 219.705 72.3164 220.651 76.8676C221.698 82.1232 223.995 86.9362 226.597 91.5666C229.453 96.7001 232.895 101.403 237.273 105.405C240.036 107.98 243.166 110.128 246.767 111.517C251.991 113.517 256.967 112.938 261.776 110.42C262.864 109.857 263.927 109.222 264.99 108.588L264.991 108.587C265.699 108.165 266.409 107.742 267.125 107.34C267.213 107.383 267.286 107.431 267.359 107.479C267.432 107.527 267.504 107.576 267.593 107.618C267.514 107.68 267.429 107.729 267.35 107.774C267.257 107.827 267.172 107.875 267.114 107.936C266.373 108.427 265.649 108.939 264.926 109.449C263.544 110.425 262.169 111.395 260.705 112.206C254.59 115.631 248.467 115.061 242.471 111.929C237.859 109.565 234.042 106.106 230.767 102.083C225.437 95.6056 221.33 88.399 218.84 80.3226C217.619 76.4608 217.17 72.4743 217.006 68.4599C216.901 65.7585 216.834 63.0614 216.766 60.3643C216.699 57.6677 216.633 54.9701 216.527 52.2681C216.498 50.7234 216.361 49.2916 216.2 47.7935C216.166 47.4434 216.051 47.095 215.912 46.6764C215.823 46.4104 215.725 46.1155 215.633 45.7734C215.408 45.9335 215.195 46.0785 214.992 46.2161C214.448 46.5859 213.981 46.9034 213.587 47.3128C213.285 47.6843 212.972 48.0541 212.658 48.4261V48.4267C211.74 49.5138 210.808 50.6174 210.074 51.8148C209.829 52.2141 209.583 52.6134 209.337 53.0127C207.133 56.594 204.91 60.2059 202.975 63.9553C199.312 71.065 195.699 78.2116 192.087 85.3588C188.475 92.5065 184.862 99.6542 181.199 106.764C176.364 116.103 171.417 125.333 166.381 134.521C165.154 136.749 163.684 138.893 162.224 141.025C161.754 141.71 161.285 142.394 160.825 143.079C159.793 144.555 158.56 145.88 157.37 147.117C156.612 147.904 155.7 148.671 154.783 149.218C151.685 151.13 149.153 150.251 147.833 146.942C147.045 144.927 146.764 142.879 146.657 140.696C146.368 135.911 146.742 131.115 147.27 126.337C148.547 115.52 150.775 104.884 153.313 94.2856C153.857 91.9836 154.405 89.6798 154.954 87.374L154.955 87.3686L154.956 87.366C156.409 81.2593 157.865 75.1409 159.24 69.0123C159.914 66.108 160.255 63.1 160.596 60.0919C160.707 58.9416 160.64 57.7073 160.464 56.5849C160.145 54.847 159.184 54.225 157.629 54.8496C156.313 55.3158 155.068 55.9796 153.935 56.7508C150.775 58.9074 148.088 61.5622 145.425 64.2829C138.13 71.9016 131.688 80.2552 125.447 88.7598C113.46 105.075 102.57 122.186 92.1471 139.576C87.8674 146.719 83.5213 153.886 78.9975 160.967C76.8959 164.229 74.5267 167.364 72.1345 170.432C71.2258 171.648 70.0832 172.671 68.924 173.709C68.7378 173.875 68.5515 174.042 68.3653 174.211C67.6926 174.82 66.9733 175.297 66.1417 175.665C63.256 177.132 60.7429 176.097 59.9765 172.889C59.5955 171.396 59.3884 169.766 59.4483 168.264C59.5923 165.325 59.8674 162.341 60.3206 159.441C61.2128 153.37 62.7412 147.427 64.2745 141.468C64.457 140.758 64.64 140.048 64.8214 139.337C65.2956 137.54 65.7585 135.766 66.2219 133.991L66.2225 133.99C66.6854 132.216 67.1489 130.442 67.6225 128.645C67.7461 128.158 67.8462 127.604 67.9457 127.05C67.706 127.209 67.6171 127.167 67.5278 127.124ZM288.833 -35.1863C289.286 -36.2256 289.74 -37.2675 290.206 -38.3078C290.094 -38.416 289.939 -38.4352 289.741 -38.3653C289.506 -37.9856 289.293 -37.5403 289.081 -37.0948C288.88 -36.6732 288.681 -36.2474 288.481 -35.8202C287.877 -34.5328 287.267 -33.2328 286.595 -31.9937C279.968 -19.3546 272.469 -7.29517 264.591 4.52856C259.013 13.0205 253.143 21.3192 246.758 29.2083C245.506 30.6885 244.188 32.192 242.8 33.4982C241.977 34.3084 240.886 34.9909 239.837 35.5845C238.263 36.3643 237.109 36.0325 236.179 34.6596C235.725 34.006 235.337 33.3289 235.081 32.6053C233.971 29.8892 233.542 27.0057 233.333 24.1182C232.85 18.3663 233.208 12.6871 233.607 6.91877C233.661 6.23365 233.714 5.54821 233.636 4.90961C233.608 4.6232 233.271 4.29841 233.027 4.2368C232.783 4.17514 232.28 4.42735 232.196 4.60553C231.898 5.2291 231.69 5.89516 231.614 6.51466C230.736 13.8591 230.477 21.2802 231.609 28.6532C231.987 31.1845 232.497 33.6688 233.951 35.8933C235.746 38.6627 238.518 39.3831 241.357 37.7854C242.646 37.0328 243.929 36.0592 245.011 34.9357C246.593 33.3389 247.996 31.6572 249.352 29.8439C262.897 11.8662 274.947 -6.98842 285.075 -27.0873C286.45 -29.7216 287.638 -32.4454 288.833 -35.1863Z" fill="black"/>
</g>
</svg>
