<svg width="136" height="126" viewBox="0 0 136 126" fill="none" xmlns="http://www.w3.org/2000/svg">
<path d="M80.3554 46.9091C72.8692 41.3576 69.6875 33.5606 67.816 25.0774C66.7554 20.3368 66.2563 15.5339 66.8802 10.6685C67.1297 8.6101 67.504 6.61406 68.3774 4.74279C68.9389 3.62002 69.5628 2.55962 70.4361 1.62398C72.0582 -0.122557 74.304 -0.434439 76.4875 0.563581C77.86 1.18734 78.9829 2.24774 79.9187 3.37051C81.5407 5.36655 82.7261 7.61208 83.6618 9.98238C86.1572 16.22 86.9683 22.7695 86.8435 29.5061C86.7187 33.9972 86.2196 38.4883 85.2839 42.8547C85.2215 43.1665 85.2215 43.416 85.1591 43.7903C86.9059 44.6636 88.7774 44.8507 90.7114 44.9131C98.7591 45.2873 106.62 44.1022 114.231 41.4824C116.726 40.6091 119.159 39.6111 121.53 38.4259C126.146 36.2428 130.077 33.0616 133.196 29.0695C133.757 28.3834 134.319 27.6972 134.943 27.0111C135.005 26.9487 135.13 26.9487 135.442 26.9487C135.317 27.3854 135.254 27.6972 135.13 28.0091C132.697 33.1863 129.141 37.3656 124.399 40.6091C118.473 44.6012 111.922 47.0962 104.998 48.4685C99.3205 49.5913 93.6435 50.0903 87.904 49.4042C86.6563 49.2794 85.3462 48.9675 83.9738 48.718C83.849 49.0299 83.7242 49.4042 83.5994 49.7784C81.915 55.4547 79.9187 60.9438 77.049 66.1213C74.7407 70.3005 72.0582 74.1678 68.627 77.5362C66.7554 79.3451 64.6967 80.9669 62.3884 82.152C56.4618 85.1461 51.0342 84.2104 46.5425 79.3451C46.293 79.0956 46.0434 78.8461 45.6691 78.4718C45.4196 79.1579 45.2325 79.657 44.9829 80.2183C43.3609 84.7094 41.5517 89.1381 39.2435 93.3797C37.2472 96.9975 34.9389 100.428 31.9444 103.36C30.5095 104.795 28.9499 105.98 27.1407 106.915C22.7738 109.099 18.5939 108.787 14.6012 105.917C13.8526 105.418 13.2287 104.795 12.4177 104.171C12.1682 104.857 11.981 105.356 11.7939 105.917C10.1095 110.907 8.05083 115.835 5.493 120.451C4.86914 121.636 4.12052 122.759 3.30951 123.819C2.9352 124.381 2.31135 124.755 1.74988 125.192C1.25079 125.503 0.689327 125.503 0.25263 125.004C-0.184068 124.505 0.00308851 124.006 0.3774 123.507C1.12602 122.447 1.81226 121.324 2.43612 120.201C5.55538 114.525 7.92606 108.537 9.86 102.424C10.0471 101.863 10.1719 101.302 9.73523 100.74C5.68015 95.0015 3.55905 88.5144 2.24896 81.653C0.3774 72.1094 0.00308847 62.4411 1.12602 52.7725C1.50034 49.4665 2.12419 46.2854 3.49667 43.2289C3.99575 42.1061 4.6196 40.9834 5.36823 40.0477C7.23982 37.7398 9.79755 37.6151 12.0434 39.6111C13.4159 40.8586 14.3517 42.3556 15.1004 44.0398C16.66 47.2834 17.5333 50.7764 18.0948 54.3319C19.2177 61.1309 19.2178 67.9302 18.5316 74.7916C17.7206 83.15 16.0985 91.3837 13.8527 99.4302C13.6031 100.366 13.6031 101.052 14.4141 101.676C15.4123 102.487 16.348 103.422 17.4086 104.108C19.7792 105.605 22.2747 105.73 24.8325 104.607C26.5792 103.859 28.0141 102.736 29.3242 101.426C31.6325 99.2431 33.4416 96.6857 35.1261 94.0035C38.6196 88.2649 41.1774 82.0896 43.2985 75.7272C43.4857 75.1659 43.5481 74.7292 43.2361 74.1678C40.4288 68.4916 39.1811 62.3787 38.5572 56.1408C37.871 49.4042 37.9334 42.6675 39.0563 35.9933C39.493 33.4358 40.0545 30.8784 41.115 28.5081C41.5517 27.5101 42.1132 26.5121 42.7994 25.7012C44.4838 23.7052 46.8544 23.7675 48.4141 25.8259C49.1627 26.824 49.7242 27.9467 50.1609 29.1319C51.3462 32.4378 51.7206 35.9309 51.9701 39.424C52.5939 50.5893 50.7224 61.5052 47.6031 72.1718C47.4783 72.5461 47.416 72.9203 47.2287 73.2946C46.9792 73.9183 47.104 74.4797 47.4783 74.9787C48.3517 76.1015 49.1628 77.349 50.2233 78.2847C52.6563 80.5926 55.5884 81.154 58.7076 79.9065C60.3297 79.2827 61.8893 78.2847 63.3242 77.2243C65.8196 75.353 67.816 72.9827 69.6251 70.4876C73.4306 65.248 76.1132 59.3844 78.2343 53.2715C78.9829 51.3378 79.6068 49.1547 80.3554 46.9091ZM11.2324 97.4966C11.4196 97.1223 11.482 96.9975 11.5443 96.8104C11.6692 96.4985 11.7315 96.1243 11.8563 95.8124C14.1646 87.6411 15.7242 79.2827 16.2232 70.7995C16.5976 64.6243 16.4728 58.4487 15.1004 52.3358C14.4765 49.5913 13.7902 46.9091 12.4177 44.4141C11.7939 43.3537 11.0453 42.3556 10.1719 41.4824C9.36085 40.6715 8.42514 40.7339 7.7389 41.7319C7.11505 42.6052 6.55358 43.6032 6.17923 44.6012C4.80676 48.0319 4.30768 51.6497 3.99575 55.3299C3.3719 63.3768 3.80859 71.3609 5.18107 79.3451C6.17923 85.0213 7.61407 90.5728 10.2342 95.75C10.5462 96.1867 10.7957 96.748 11.2324 97.4966ZM81.4783 41.6071C81.6655 40.8586 81.7903 40.3596 81.8527 39.923C82.1022 38.1764 82.4141 36.4923 82.6013 34.7457C83.2875 28.4457 83.1004 22.2081 81.5407 16.0329C80.7297 12.8517 79.6068 9.85763 77.7976 7.11307C77.1114 6.11507 76.3004 5.2418 75.427 4.43091C74.2417 3.43289 73.4306 3.68239 72.6196 4.99229C72.3077 5.4913 72.0582 6.05269 71.9334 6.61406C71.6215 8.04872 71.2472 9.54575 71.1224 11.0428C70.6857 16.4695 71.4343 21.7715 72.9316 27.0111C74.2417 31.5022 76.1756 35.6814 79.2325 39.2992C79.8563 40.0477 80.6049 40.7339 81.4783 41.6071ZM45.8563 27.7596C45.7316 27.7596 45.5444 27.7596 45.4196 27.822C45.1077 28.3834 44.6709 28.8824 44.4214 29.4438C43.9848 30.6289 43.4856 31.8764 43.1737 33.124C41.6765 39.1121 41.427 45.225 41.7389 51.4002C41.9884 57.0141 42.7371 62.6282 44.359 68.055C44.4838 68.4916 44.6709 68.9282 44.8582 69.3649C45.2325 68.8659 45.482 68.3669 45.5444 67.8678C46.293 64.1876 47.2287 60.5695 47.7902 56.8893C48.9132 50.2151 49.2875 43.4784 48.4765 36.8042C48.2269 34.5586 47.6031 32.3131 46.9793 30.1299C46.8545 29.2566 46.293 28.5081 45.8563 27.7596Z" fill="black"/>
</svg>
