<svg width="151" height="141" viewBox="0 0 151 141" fill="none" xmlns="http://www.w3.org/2000/svg">
<path d="M108.612 57.2337C109.67 57.7159 110.464 57.9943 111.224 58.3721C118.731 61.4497 126.139 64.4924 133.646 67.57C136.094 68.5395 136.495 70.5758 134.801 72.5465C134.259 73.1372 133.752 73.6286 133.146 74.0852C122.291 83.1033 110.498 90.3428 97.668 95.7698C86.8502 100.229 76.3842 105.593 66.082 111.125C60.31 114.231 54.4735 117.203 48.5377 120.14C43.0042 122.883 37.6294 126.129 32.5177 129.578C27.1726 133.056 21.5347 136.098 15.8968 139.139C14.3867 139.948 12.5839 140.32 10.8507 140.493C9.38572 140.537 7.59311 140.243 6.27241 139.557C1.98292 137.161 1.04626 133.153 4.00292 129.172C5.90612 126.605 8.30072 124.545 10.5664 122.217C11.411 121.398 12.3549 120.614 13.1002 119.76C25.2586 106.07 37.3526 92.2448 49.511 78.5545C56.5914 70.4434 63.6023 62.5309 70.7769 54.7873C83.566 41.2063 98.95 31.9917 116.835 26.7759C119.676 25.9876 122.482 25.2987 125.423 24.5453C123.447 23.1836 122.484 23.069 121.763 24.4889C120.67 24.106 119.578 23.7231 118.486 23.3402C117.493 22.9921 116.599 22.6788 116.217 21.5414C116.058 21.0398 115.334 20.5627 114.802 20.4879C112.647 19.9555 110.358 19.4876 108.203 18.9552C107.473 18.8109 106.743 18.6665 106.048 18.4228C105.254 18.1444 103.853 18.3225 103.973 17.0264C104.063 15.4969 105.493 15.5522 106.556 15.7017C109.58 15.9812 112.604 16.2608 115.559 16.7389C123.792 18.0638 132.328 19.1604 140.575 21.7169C142.894 22.4182 145.143 23.3181 147.393 24.218C150.104 25.3913 150.709 27.1645 149.734 29.945C149.107 31.7325 148.089 33.048 146.608 34.0901C143.951 35.9462 141.392 37.837 138.705 39.4596C129.57 44.8434 120.37 50.0931 111.235 55.4769C110.395 55.9632 109.655 56.4843 108.612 57.2337Z" fill="#55BBDA"/>
<path d="M80.1382 62.3786C87.8098 64.5983 95.4818 66.818 103.049 69.0011C105.594 69.7759 108.102 70.6551 110.647 71.4299C112.215 71.9794 113.568 72.8059 113.891 74.5621C114.178 76.4229 113.315 77.8807 111.793 78.8731C110.517 79.8342 109.069 80.6175 107.658 81.2962C75.2448 98.0999 43.1401 115.364 11.9545 134.358C10.0463 135.45 8.13804 136.541 6.12534 137.596C4.78174 138.416 3.33894 138.849 1.88657 137.636C0.538674 136.459 0.596884 134.954 1.10978 133.491C2.49655 129.869 3.98784 126.284 5.58364 122.736C8.80644 115.886 12.1704 108.967 15.3933 102.117C19.0137 94.4669 22.3885 86.8481 26.1134 79.2347C29.9483 71.3078 34.0601 63.5953 38.0673 55.8462C39.8721 52.3714 41.5724 48.8599 43.4505 45.1761C42.3009 44.7731 41.2557 44.4067 40.3151 44.077C37.1431 43.0825 33.8298 42.1558 30.6944 41.0567C26.8274 39.7012 26.2693 37.2758 28.9781 34.2352C30.6881 32.3701 32.5026 30.5417 34.4216 28.7499C36.9785 26.4775 39.7444 24.2784 42.3692 22.1472C50.1389 15.717 58.0133 9.32339 65.6786 2.85649C68.4445 0.657486 71.0109 0.0314863 74.183 1.02609C79.2729 2.57559 84.3996 4.02049 89.4895 5.56999C101.065 9.04079 112.745 12.5481 124.283 16.1234C127.351 17.0813 130.382 18.1438 133.308 19.1696C134.353 19.5359 135.294 19.8656 136.266 20.441C139.636 22.2092 140.225 24.8803 137.59 27.7118C136.413 29.0597 134.996 30.0887 133.543 31.2222C123.944 38.1847 113.66 44.0858 103.309 49.8458C96.4908 53.5587 89.4337 56.9526 82.444 60.4876C81.5971 60.8949 80.7502 61.3022 79.9712 61.8506C80.0391 61.9918 80.107 62.1329 80.1382 62.3786Z" fill="#DBFF00"/>
<path d="M43.6598 45.2495C42.4057 44.8098 41.465 44.4801 40.4199 44.1138C37.2845 43.0147 33.9712 42.088 30.8358 40.9889C27.1778 39.7067 26.5152 37.2446 29.0829 34.2719C30.6517 32.4747 32.4296 30.7508 34.3119 29.0635C37.01 26.7233 39.7759 24.5242 42.4373 22.2885C50.3482 15.7904 58.2225 9.3968 65.9244 2.8254C68.4446 0.657597 71.1157 0.0681968 74.2878 1.0628C79.2732 2.5757 84.2953 3.984 89.2807 5.4969C100.961 9.0042 112.604 12.6161 124.388 16.1601C127.351 17.0814 130.277 18.1072 133.204 19.133C134.04 19.4261 134.876 19.7192 135.675 20.1168C139.919 22.0736 140.57 25.236 137.02 28.3336C134.108 30.9508 130.814 33.3168 127.489 35.4373C114.261 43.7099 100.898 51.7002 86.82 58.3835C84.5616 59.4696 82.4077 60.5923 79.867 61.8141C81.0058 62.9174 82.302 62.9024 83.3472 63.2687C91.9594 65.8182 100.676 68.4042 109.288 70.9537C110.02 71.2101 110.788 71.3621 111.588 71.7597C114.3 73.0624 114.957 75.8746 112.787 78.0478C111.579 79.1501 110.094 80.0379 108.646 80.8212C97.2749 86.8107 85.9046 92.8 74.5339 98.79C54.4744 109.479 34.6864 120.733 15.17 132.551C12.4827 134.191 9.691 135.794 6.9358 137.293C6.3346 137.669 5.6288 138.008 4.9964 138.139C2.77999 138.77 0.977401 137.552 1.08303 135.241C1.20912 133.877 1.58087 132.482 2.16165 131.16C5.934 122.742 9.8109 114.36 13.6512 106.083C17.9257 96.902 22.059 87.7888 26.5425 78.681C30.3041 70.9631 34.3792 63.3552 38.3132 55.8151C40.1181 52.3403 41.8184 48.8288 43.6598 45.2495ZM8.7687 129.721C8.9411 129.898 9.1135 130.076 9.3226 130.149C40.2313 110.941 72.4717 93.959 104.655 76.1363C102.46 75.3669 100.825 74.6762 99.1159 74.1946C90.885 71.8962 82.7221 69.7389 74.4913 67.4405C73.6186 67.252 72.7825 66.9589 71.983 66.5613C68.8896 65.0075 68.5147 62.0595 71.1082 59.6827C72.2794 58.685 73.7276 57.9017 75.1757 57.1184C83.509 52.7634 92.0459 48.8318 100.243 44.1945C110.208 38.5336 119.76 32.376 129.484 26.3962C130.227 25.9523 130.938 25.2627 132.177 24.4062C129.564 23.4903 127.615 22.6897 125.592 22.0981C108.3 16.8581 91.0078 11.618 73.7522 6.2735C72.2523 5.8651 71.4054 6.2723 70.412 7.0977C62.6422 13.5279 54.8724 19.9581 47.1027 26.3884C44.1223 28.8643 41.142 31.3403 38.1617 33.8163C37.4872 34.4014 36.776 35.0909 35.8505 36.0574C37.1046 36.497 38.0453 36.8268 38.8814 37.1198C41.9489 38.0778 45.0531 38.9312 47.9429 40.0615C50.6236 41.1185 51.2604 42.9847 49.9943 45.5922C48.0063 49.5896 45.8771 53.6549 43.7846 57.6156C39.4164 66.0597 34.9803 74.3626 30.8211 82.88C24.4541 96.022 18.3327 109.132 12.1435 122.102C11.0186 124.641 9.8937 127.181 8.7687 129.721Z" fill="black"/>
</svg>
