<svg width="48" height="42" viewBox="0 0 48 42" fill="none" xmlns="http://www.w3.org/2000/svg">
<g clip-path="url(#clip0_204_226)">
<path fill-rule="evenodd" clip-rule="evenodd" d="M9.2857 0.948608C8.2361 1.09151 7.3302 1.54133 6.5698 2.2347C6.2558 2.5205 6.1344 3.06642 6.5002 3.35429C7.6952 4.29535 7.4334 5.58435 7.3567 6.7818C6.8684 14.3994 5.1462 21.7759 2.8697 29.0339C2.0392 31.6828 1.1065 34.2997 0.235803 36.9356C0.117803 37.2935 -0.138199 37.6381 0.304101 38.0478C0.745301 38.4566 1.0414 38.0196 1.3674 38.0407C3.8423 38.2019 4.396 36.2791 5.2128 34.6277C9.3441 26.2762 11.3629 17.3986 11.7982 8.12961C11.8778 6.43346 11.7899 4.74021 11.3219 3.09914C11.0233 2.0537 10.5138 1.14204 9.2857 0.948608Z" fill="black"/>
<path fill-rule="evenodd" clip-rule="evenodd" d="M29.8318 16.771C29.532 16.0238 29.1095 15.7259 28.3929 15.9736C27.6888 16.2168 27.3317 16.5701 27.2949 17.4068C27.2158 19.1965 26.2345 20.6881 25.3659 22.1788C22.3087 27.4288 18.8708 32.4361 15.5075 37.4906C15.2429 37.8886 14.9467 38.2813 15.2139 38.8392C15.5382 39.5185 16.0079 38.898 16.3877 39.026C17.6382 39.4472 18.2901 38.5832 18.9404 37.7871C22.3162 33.653 25.7926 29.5909 28.313 24.8375C29.1397 23.2781 29.9217 21.7012 30.543 20.0432C30.8176 19.3096 30.3252 18.4849 30.992 17.7651C31.2637 17.4722 31.1436 16.7523 30.7783 16.2926C30.5886 16.0536 30.3964 15.7438 30.0667 15.8423C29.6798 15.9579 29.9093 16.3539 29.8318 16.771Z" fill="black"/>
<path fill-rule="evenodd" clip-rule="evenodd" d="M46.7081 28.667C45.2654 28.7187 44.4126 29.2696 43.6045 30.2687C42.0479 32.1935 39.8717 33.3955 37.7514 34.6145C34.9489 36.2265 32.0516 37.646 29.0374 38.8294C28.2736 39.1288 27.5604 39.5687 26.8513 39.99C26.5812 40.1503 26.2673 40.3797 26.5129 40.813C26.7125 41.1663 26.983 41.1361 27.3525 41.1584C30.2341 41.3328 32.6319 39.8438 35.1374 38.8451C38.5529 37.4836 41.8226 35.7825 44.7435 33.4941C45.8155 32.6541 46.7677 31.6997 47.575 30.6042C47.9209 30.1345 48.1648 29.6449 47.8641 29.0393C47.534 28.3754 47.0225 28.5659 46.7081 28.667Z" fill="black"/>
</g>
<defs>
<clipPath id="clip0_204_226">
<rect width="48" height="42" fill="white" transform="matrix(-1 0 0 1 48 0)"/>
</clipPath>
</defs>
</svg>
