<svg width="940" height="114" viewBox="0 0 940 114" fill="none" xmlns="http://www.w3.org/2000/svg">
<path d="M808.396 41.0054L805.677 41.8261L801.498 27.9831L804.217 27.1624L806.644 35.2039L807.544 34.9323C807.588 34.7311 807.651 34.5241 807.733 34.3113L809.402 30.3602L812.638 29.3834L810.116 35.2842L815.48 38.8668L812.244 39.8436L808.65 37.4188C808.464 37.287 808.291 37.1302 808.138 36.9676L807.257 37.2335L808.396 41.0054ZM815.396 27.0048C814.477 27.2822 813.486 26.7667 813.203 25.8285C812.925 24.9095 813.46 23.9124 814.379 23.635C815.298 23.3576 816.276 23.898 816.553 24.8171C816.837 25.7552 816.315 26.7274 815.396 27.0048ZM814.465 28.832L817.183 28.0113L820.044 37.4889L817.326 38.3096L814.465 28.832ZM827.435 35.5502C824.525 36.4288 821.622 34.84 820.795 32.102C819.905 29.1534 821.31 26.4729 824.259 25.5828C825.216 25.2938 826.239 25.361 827.096 25.7082L825.607 20.7051L828.326 19.8844L831.077 28.9982C831.944 31.8702 830.403 34.6543 827.435 35.5502ZM826.661 32.9846C828.058 32.5627 828.763 31.1592 828.358 29.8189C827.954 28.4787 826.584 27.6803 825.187 28.1022C823.789 28.5241 823.11 29.941 823.514 31.2812C823.919 32.6215 825.263 33.4065 826.661 32.9846ZM839.514 31.9039C836.604 32.7825 833.701 31.1936 832.874 28.4557C831.984 25.5071 833.389 22.8266 836.338 21.9365C837.295 21.6475 838.318 21.7147 839.175 22.0619L837.686 17.0588L840.405 16.2381L843.156 25.3518C844.023 28.2238 842.482 31.008 839.514 31.9039ZM838.739 29.3383C840.137 28.9163 840.842 27.5129 840.437 26.1726C840.032 24.8323 838.663 24.0339 837.266 24.4559C835.868 24.8778 835.188 26.2947 835.593 27.6349C835.998 28.9752 837.342 29.7602 838.739 29.3383ZM845.313 17.9737C844.394 18.2511 843.402 17.7356 843.119 16.7974C842.842 15.8784 843.376 14.8813 844.296 14.6039C845.215 14.3264 846.192 14.8669 846.47 15.7859C846.753 16.7241 846.232 17.6962 845.313 17.9737ZM844.381 19.8009L847.1 18.9801L849.961 28.4577L847.242 29.2785L844.381 19.8009ZM855.414 19.0609C853.882 19.5233 853.568 20.976 854.008 22.4311L855.337 26.8348L852.618 27.6556L851.191 22.9264C850.358 20.1692 851.304 17.4186 854.616 16.4187C857.928 15.4188 860.27 17.1561 861.108 19.9323L862.536 24.6616L859.817 25.4823L858.488 21.0786C858.049 19.6234 856.965 18.5928 855.414 19.0609ZM870.625 27.2545C868.404 27.925 866.405 27.4629 865.012 25.9616L866.901 24.0541C867.571 24.7503 868.552 25.1643 869.835 24.777C871.444 24.2915 872.194 22.8324 871.633 20.9752L871.581 20.8029C871.261 21.6099 870.492 22.3852 869.152 22.7898C866.49 23.5932 863.741 22.1669 862.891 19.3524C862.065 16.6144 863.61 13.7038 866.52 12.8252C869.488 11.9293 872.312 13.3957 873.173 16.2485L874.329 20.0779C875.346 23.4477 873.708 26.324 870.625 27.2545ZM868.684 20.1316C870.043 19.7213 870.809 18.3828 870.399 17.0234C869.988 15.664 868.615 14.9921 867.256 15.4024C865.916 15.807 865.144 17.1263 865.554 18.4857C865.965 19.8451 867.343 20.5362 868.684 20.1316Z" fill="#DBFF00"/>
<path d="M816.382 81.0619C819.462 82.0001 820.355 84.6973 819.551 87.3376L818.042 92.2928L815.325 91.4652L816.694 86.9692C817.137 85.5152 816.879 84.0984 815.387 83.6438C813.913 83.1951 812.915 84.2081 812.478 85.643L811.097 90.1773L808.38 89.3498L809.755 84.8346C810.198 83.3806 809.934 81.9829 808.461 81.5342C806.949 81.0738 805.983 82.1176 805.546 83.5525L804.171 88.0677L801.454 87.2401L802.963 82.2849C803.768 79.6447 805.993 77.8974 809.055 78.8298C810.872 79.3835 811.947 80.5891 812.106 82.0591C813.095 80.9388 814.679 80.5432 816.382 81.0619ZM824.458 94.519C821.703 93.6798 820.458 90.8336 821.297 88.0786C822.125 85.3618 825.038 83.7611 827.946 84.647C830.911 85.5503 832.44 88.3574 831.571 91.2081L830.12 95.972L827.537 95.1852L827.875 94.0756C826.949 94.7134 825.759 94.9153 824.458 94.519ZM825.673 92.1085C827.07 92.5339 828.441 91.7389 828.849 90.3997C829.257 89.0604 828.562 87.6361 827.165 87.2107C825.768 86.7852 824.416 87.586 824.008 88.9253C823.6 90.2645 824.276 91.6831 825.673 92.1085ZM835.557 102.687C833.299 102 831.945 100.542 831.62 98.5196L834.232 97.977C834.402 98.9279 835.051 99.8157 836.276 100.189C837.902 100.684 839.201 99.7834 839.737 98.0232L839.819 97.7554C839.069 98.3633 838.099 98.5278 836.932 98.1723C833.852 97.234 833.113 94.8555 833.969 92.0431L835.432 87.2409L838.111 88.0568L836.677 92.7633C836.257 94.1408 836.718 95.3055 838.057 95.7135C839.282 96.0865 840.509 95.3522 840.923 93.9938L842.339 89.3447L845.094 90.1839L842.465 98.8125C841.457 102.122 838.675 103.637 835.557 102.687ZM849.809 102.262C846.862 101.364 845.328 98.5764 846.202 95.7066L848.976 86.5997L851.693 87.4272L850.178 92.4016C851.049 92.0815 852.053 92.011 853.01 92.3024C855.956 93.1999 857.355 95.8839 856.457 98.8302C855.624 101.566 852.736 103.154 849.809 102.262ZM850.59 99.6982C851.986 100.124 853.332 99.342 853.74 98.0027C854.148 96.6635 853.472 95.2449 852.076 94.8195C850.679 94.3941 849.327 95.1949 848.919 96.5341C848.511 97.8734 849.193 99.2728 850.59 99.6982ZM861.444 105.785C858.498 104.888 856.902 102.165 857.823 99.1417C858.656 96.4058 861.334 94.7543 864.261 95.646C867.265 96.5609 868.33 99.3106 867.543 101.893L867.298 102.697L860.257 100.552C860.064 101.873 860.783 103.012 862.142 103.426C863.175 103.741 864.187 103.506 864.896 102.76L866.66 104.447C865.319 105.899 863.453 106.397 861.444 105.785ZM860.833 99.0759L865.061 100.364C865.243 99.3531 864.667 98.3622 863.519 98.0125C862.333 97.6512 861.315 98.1775 860.833 99.0759Z" fill="#DBFF00"/>
<path d="M72.0628 56.44H65.0308V64H63.3028V46.816H73.4308V48.4H65.0308V54.88H72.0628V56.44ZM81.3195 52.24V53.728H80.4075C78.2715 53.728 76.9035 55.168 76.9035 57.376V64H75.2475V52.384H76.8075L76.9275 54.184C77.3835 52.936 78.6075 52.12 80.2395 52.12C80.5995 52.12 80.9115 52.144 81.3195 52.24ZM82.2597 58.192C82.2597 54.64 84.7557 52.072 88.1637 52.072C91.5717 52.072 94.0677 54.64 94.0677 58.192C94.0677 61.72 91.5717 64.288 88.1637 64.288C84.7557 64.288 82.2597 61.72 82.2597 58.192ZM83.9397 58.168C83.9397 60.904 85.6677 62.8 88.1637 62.8C90.6357 62.8 92.3877 60.904 92.3877 58.168C92.3877 55.48 90.6357 53.56 88.1637 53.56C85.6677 53.56 83.9397 55.48 83.9397 58.168ZM98.3723 64H96.7163V52.384H98.1563L98.3483 54.04C98.9243 52.816 100.22 52.072 101.852 52.072C103.676 52.072 105.044 53.032 105.596 54.544C106.124 53.032 107.54 52.072 109.412 52.072C111.932 52.072 113.588 53.704 113.588 56.392V64H111.98V56.728C111.98 54.736 110.876 53.56 109.1 53.56C107.156 53.56 106.004 55.024 106.004 56.824V64H104.372V56.704C104.372 54.736 103.244 53.584 101.492 53.584C99.5483 53.584 98.3723 55.024 98.3723 56.8V64ZM125.016 64H123.576V46.504H125.232V54.64C126.048 52.936 127.632 52.072 129.6 52.072C132.984 52.072 134.952 54.712 134.952 58.216C134.952 61.696 132.936 64.288 129.552 64.288C127.608 64.288 126 63.424 125.184 61.624L125.016 64ZM125.256 58.168C125.256 60.856 126.744 62.776 129.288 62.776C131.808 62.776 133.272 60.856 133.272 58.168C133.272 55.504 131.808 53.56 129.288 53.56C126.744 53.56 125.256 55.504 125.256 58.168ZM145.47 52.384H147.126V64H145.686L145.47 62.032C144.822 63.376 143.214 64.288 141.39 64.288C138.654 64.288 137.166 62.416 137.166 59.584V52.36H138.846V59.056C138.846 61.816 140.07 62.8 141.918 62.8C144.15 62.8 145.47 61.312 145.47 58.552V52.384ZM151.392 49.192C150.72 49.192 150.168 48.64 150.168 47.968C150.168 47.296 150.72 46.72 151.392 46.72C152.064 46.72 152.64 47.296 152.64 47.968C152.64 48.64 152.064 49.192 151.392 49.192ZM150.576 64V52.384H152.232V64H150.576ZM157.413 64H155.757V46.504H157.413V64ZM165.495 64.288C162.111 64.288 160.119 61.696 160.119 58.216C160.119 54.712 162.111 52.072 165.567 52.072C167.487 52.072 169.023 52.912 169.839 54.592V46.504H171.495V64H170.055L169.887 61.624C169.071 63.424 167.439 64.288 165.495 64.288ZM165.783 62.776C168.327 62.776 169.815 60.856 169.815 58.168C169.815 55.504 168.327 53.56 165.783 53.56C163.263 53.56 161.799 55.504 161.799 58.168C161.799 60.856 163.263 62.776 165.783 62.776ZM175.767 49.192C175.095 49.192 174.543 48.64 174.543 47.968C174.543 47.296 175.095 46.72 175.767 46.72C176.439 46.72 177.015 47.296 177.015 47.968C177.015 48.64 176.439 49.192 175.767 49.192ZM174.951 64V52.384H176.607V64H174.951ZM181.716 64H180.06V52.384H181.5L181.74 54.4C182.508 52.912 184.044 52.072 185.724 52.072C188.916 52.072 190.236 53.968 190.236 56.896V64H188.58V57.256C188.58 54.544 187.356 53.584 185.436 53.584C183.06 53.584 181.716 55.312 181.716 57.928V64ZM192.745 57.856C192.745 54.688 194.785 52.072 198.193 52.072C200.209 52.072 201.745 53.008 202.489 54.712L202.657 52.384H204.097V63.64C204.097 67.096 201.889 69.352 198.481 69.352C195.505 69.352 193.417 67.672 192.961 64.864H194.617C194.977 66.736 196.417 67.84 198.505 67.84C200.881 67.84 202.465 66.232 202.465 63.808V61.048C201.673 62.68 200.065 63.64 198.073 63.64C194.761 63.64 192.745 61.024 192.745 57.856ZM194.401 57.832C194.401 60.208 195.865 62.152 198.313 62.152C200.833 62.152 202.321 60.328 202.321 57.832C202.321 55.36 200.881 53.536 198.337 53.536C195.841 53.536 194.401 55.48 194.401 57.832ZM217.544 64.288C215.072 64.288 213.608 62.896 213.608 60.856C213.608 58.72 215.24 57.376 217.952 57.16L221.792 56.848V56.464C221.792 54.184 220.424 53.464 218.72 53.464C216.704 53.464 215.504 54.376 215.504 55.936H213.992C213.992 53.584 215.912 52.072 218.768 52.072C221.456 52.072 223.424 53.416 223.424 56.488V64H222.032L221.816 61.96C221.096 63.424 219.512 64.288 217.544 64.288ZM217.928 62.944C220.376 62.944 221.792 61.24 221.792 58.72V58.096L218.36 58.36C216.176 58.552 215.288 59.512 215.288 60.808C215.288 62.224 216.344 62.944 217.928 62.944ZM228.404 64H226.748V52.384H228.188L228.428 54.4C229.196 52.912 230.732 52.072 232.412 52.072C235.604 52.072 236.924 53.968 236.924 56.896V64H235.268V57.256C235.268 54.544 234.044 53.584 232.124 53.584C229.748 53.584 228.404 55.312 228.404 57.928V64ZM247.24 64H245.488L251.8 46.816H253.936L260.32 64H258.52L256.84 59.44H248.92L247.24 64ZM252.64 49.24L249.448 57.928H256.288L253.072 49.24C253 49 252.88 48.712 252.856 48.544C252.832 48.688 252.736 49 252.64 49.24ZM260.959 52.384H262.735V50.128C262.735 47.512 264.175 46.504 265.951 46.504C266.359 46.504 266.839 46.528 267.223 46.6V48.016H266.239C264.775 48.016 264.391 48.76 264.391 50.128V52.384H267.127V53.776H264.391V64H262.735V53.776H260.959V52.384ZM275.452 52.24V53.728H274.54C272.404 53.728 271.036 55.168 271.036 57.376V64H269.38V52.384H270.94L271.06 54.184C271.516 52.936 272.74 52.12 274.372 52.12C274.732 52.12 275.044 52.144 275.452 52.24ZM278.47 49.192C277.798 49.192 277.246 48.64 277.246 47.968C277.246 47.296 277.798 46.72 278.47 46.72C279.142 46.72 279.718 47.296 279.718 47.968C279.718 48.64 279.142 49.192 278.47 49.192ZM277.654 64V52.384H279.31V64H277.654ZM281.947 58.216C281.947 54.568 284.179 52.072 287.563 52.072C290.251 52.072 292.219 53.632 292.675 56.032H291.019C290.587 54.424 289.195 53.536 287.587 53.536C285.235 53.536 283.579 55.336 283.579 58.192C283.579 60.952 285.115 62.8 287.467 62.8C289.195 62.8 290.587 61.84 291.043 60.352H292.723C292.171 62.728 290.107 64.288 287.467 64.288C284.179 64.288 281.947 61.864 281.947 58.216ZM298.568 64.288C296.096 64.288 294.632 62.896 294.632 60.856C294.632 58.72 296.264 57.376 298.976 57.16L302.816 56.848V56.464C302.816 54.184 301.448 53.464 299.744 53.464C297.728 53.464 296.528 54.376 296.528 55.936H295.016C295.016 53.584 296.936 52.072 299.792 52.072C302.48 52.072 304.448 53.416 304.448 56.488V64H303.056L302.84 61.96C302.12 63.424 300.536 64.288 298.568 64.288ZM298.952 62.944C301.4 62.944 302.816 61.24 302.816 58.72V58.096L299.384 58.36C297.2 58.552 296.312 59.512 296.312 60.808C296.312 62.224 297.368 62.944 298.952 62.944ZM309.427 64H307.771V52.384H309.211L309.451 54.4C310.219 52.912 311.755 52.072 313.435 52.072C316.627 52.072 317.947 53.968 317.947 56.896V64H316.291V57.256C316.291 54.544 315.067 53.584 313.147 53.584C310.771 53.584 309.427 55.312 309.427 57.928V64ZM330.568 64H328.936V53.776H326.608V52.384H328.936V48.712H330.568V52.384H332.896V53.776H330.568V64ZM338.201 64.288C335.729 64.288 334.265 62.896 334.265 60.856C334.265 58.72 335.897 57.376 338.609 57.16L342.449 56.848V56.464C342.449 54.184 341.081 53.464 339.377 53.464C337.361 53.464 336.161 54.376 336.161 55.936H334.649C334.649 53.584 336.569 52.072 339.425 52.072C342.113 52.072 344.081 53.416 344.081 56.488V64H342.689L342.473 61.96C341.753 63.424 340.169 64.288 338.201 64.288ZM338.585 62.944C341.033 62.944 342.449 61.24 342.449 58.72V58.096L339.017 58.36C336.833 58.552 335.945 59.512 335.945 60.808C335.945 62.224 337.001 62.944 338.585 62.944ZM349.132 64H347.476V46.504H349.132V64ZM357.526 64.288C354.118 64.288 351.838 61.84 351.838 58.192C351.838 54.568 354.094 52.072 357.406 52.072C360.55 52.072 362.686 54.304 362.686 57.592V58.408H353.446C353.566 61.24 355.054 62.872 357.55 62.872C359.446 62.872 360.67 62.056 361.102 60.52H362.686C362.062 62.968 360.262 64.288 357.526 64.288ZM357.406 53.488C355.222 53.488 353.782 54.928 353.494 57.208H361.03C361.03 54.976 359.59 53.488 357.406 53.488ZM366.989 64H365.333V52.384H366.773L367.013 54.4C367.781 52.912 369.317 52.072 370.997 52.072C374.189 52.072 375.509 53.968 375.509 56.896V64H373.853V57.256C373.853 54.544 372.629 53.584 370.709 53.584C368.333 53.584 366.989 55.312 366.989 57.928V64ZM381.474 64H379.842V53.776H377.514V52.384H379.842V48.712H381.474V52.384H383.802V53.776H381.474V64ZM394.271 64H392.615V52.384H394.055L394.247 54.04C394.823 52.816 396.119 52.072 397.751 52.072C399.575 52.072 400.943 53.032 401.495 54.544C402.023 53.032 403.439 52.072 405.311 52.072C407.831 52.072 409.487 53.704 409.487 56.392V64H407.879V56.728C407.879 54.736 406.775 53.56 404.999 53.56C403.055 53.56 401.903 55.024 401.903 56.824V64H400.271V56.704C400.271 54.736 399.143 53.584 397.391 53.584C395.447 53.584 394.271 55.024 394.271 56.8V64ZM416.154 64.288C413.682 64.288 412.218 62.896 412.218 60.856C412.218 58.72 413.85 57.376 416.562 57.16L420.402 56.848V56.464C420.402 54.184 419.034 53.464 417.33 53.464C415.314 53.464 414.114 54.376 414.114 55.936H412.602C412.602 53.584 414.522 52.072 417.378 52.072C420.066 52.072 422.034 53.416 422.034 56.488V64H420.642L420.426 61.96C419.706 63.424 418.122 64.288 416.154 64.288ZM416.538 62.944C418.986 62.944 420.402 61.24 420.402 58.72V58.096L416.97 58.36C414.786 58.552 413.898 59.512 413.898 60.808C413.898 62.224 414.954 62.944 416.538 62.944ZM431.429 52.24V53.728H430.517C428.381 53.728 427.013 55.168 427.013 57.376V64H425.357V52.384H426.917L427.037 54.184C427.493 52.936 428.717 52.12 430.349 52.12C430.709 52.12 431.021 52.144 431.429 52.24ZM435.358 64H433.702V46.504H435.358V58.384L441.118 52.384H443.206L438.742 57.016L443.23 64H441.31L437.614 58.192L435.358 60.52V64ZM449.682 64.288C446.274 64.288 443.994 61.84 443.994 58.192C443.994 54.568 446.25 52.072 449.562 52.072C452.706 52.072 454.842 54.304 454.842 57.592V58.408H445.602C445.722 61.24 447.21 62.872 449.706 62.872C451.602 62.872 452.826 62.056 453.258 60.52H454.842C454.218 62.968 452.418 64.288 449.682 64.288ZM449.562 53.488C447.378 53.488 445.938 54.928 445.65 57.208H453.186C453.186 54.976 451.746 53.488 449.562 53.488ZM460.037 64H458.405V53.776H456.077V52.384H458.405V48.712H460.037V52.384H462.365V53.776H460.037V64ZM464.521 69.064V52.384H465.961L466.129 54.736C466.945 52.936 468.577 52.072 470.521 52.072C473.881 52.072 475.897 54.64 475.897 58.144C475.897 61.648 473.953 64.288 470.521 64.288C468.553 64.288 466.993 63.448 466.177 61.768V69.064H464.521ZM466.201 58.192C466.201 60.856 467.689 62.8 470.233 62.8C472.753 62.8 474.217 60.856 474.217 58.192C474.217 55.504 472.753 53.584 470.233 53.584C467.689 53.584 466.201 55.504 466.201 58.192ZM480.265 64H478.609V46.504H480.265V64ZM487.123 64.288C484.651 64.288 483.187 62.896 483.187 60.856C483.187 58.72 484.819 57.376 487.531 57.16L491.371 56.848V56.464C491.371 54.184 490.003 53.464 488.299 53.464C486.283 53.464 485.083 54.376 485.083 55.936H483.571C483.571 53.584 485.491 52.072 488.347 52.072C491.035 52.072 493.003 53.416 493.003 56.488V64H491.611L491.395 61.96C490.675 63.424 489.091 64.288 487.123 64.288ZM487.507 62.944C489.955 62.944 491.371 61.24 491.371 58.72V58.096L487.939 58.36C485.755 58.552 484.867 59.512 484.867 60.808C484.867 62.224 485.923 62.944 487.507 62.944ZM495.51 58.216C495.51 54.568 497.742 52.072 501.126 52.072C503.814 52.072 505.782 53.632 506.238 56.032H504.582C504.15 54.424 502.758 53.536 501.15 53.536C498.798 53.536 497.142 55.336 497.142 58.192C497.142 60.952 498.678 62.8 501.03 62.8C502.758 62.8 504.15 61.84 504.606 60.352H506.286C505.734 62.728 503.67 64.288 501.03 64.288C497.742 64.288 495.51 61.864 495.51 58.216ZM513.666 64.288C510.258 64.288 507.978 61.84 507.978 58.192C507.978 54.568 510.234 52.072 513.546 52.072C516.69 52.072 518.826 54.304 518.826 57.592V58.408H509.586C509.706 61.24 511.194 62.872 513.69 62.872C515.586 62.872 516.81 62.056 517.242 60.52H518.826C518.202 62.968 516.402 64.288 513.666 64.288ZM513.546 53.488C511.362 53.488 509.922 54.928 509.634 57.208H517.17C517.17 54.976 515.73 53.488 513.546 53.488ZM530.794 64H529.162V53.776H526.834V52.384H529.162V48.712H530.794V52.384H533.122V53.776H530.794V64ZM534.346 58.192C534.346 54.64 536.842 52.072 540.25 52.072C543.658 52.072 546.154 54.64 546.154 58.192C546.154 61.72 543.658 64.288 540.25 64.288C536.842 64.288 534.346 61.72 534.346 58.192ZM536.026 58.168C536.026 60.904 537.754 62.8 540.25 62.8C542.722 62.8 544.474 60.904 544.474 58.168C544.474 55.48 542.722 53.56 540.25 53.56C537.754 53.56 536.026 55.48 536.026 58.168ZM555.458 69.064V52.384H556.898L557.066 54.736C557.882 52.936 559.514 52.072 561.458 52.072C564.818 52.072 566.834 54.64 566.834 58.144C566.834 61.648 564.89 64.288 561.458 64.288C559.49 64.288 557.93 63.448 557.114 61.768V69.064H555.458ZM557.138 58.192C557.138 60.856 558.626 62.8 561.17 62.8C563.69 62.8 565.154 60.856 565.154 58.192C565.154 55.504 563.69 53.584 561.17 53.584C558.626 53.584 557.138 55.504 557.138 58.192ZM577.353 52.384H579.009V64H577.569L577.353 62.032C576.705 63.376 575.097 64.288 573.273 64.288C570.537 64.288 569.049 62.416 569.049 59.584V52.36H570.729V59.056C570.729 61.816 571.953 62.8 573.801 62.8C576.033 62.8 577.353 61.312 577.353 58.552V52.384ZM585.122 64H583.49V53.776H581.162V52.384H583.49V48.712H585.122V52.384H587.45V53.776H585.122V64ZM592.365 64H590.733V53.776H588.405V52.384H590.733V48.712H592.365V52.384H594.693V53.776H592.365V64ZM597.665 49.192C596.993 49.192 596.441 48.64 596.441 47.968C596.441 47.296 596.993 46.72 597.665 46.72C598.337 46.72 598.913 47.296 598.913 47.968C598.913 48.64 598.337 49.192 597.665 49.192ZM596.849 64V52.384H598.505V64H596.849ZM603.614 64H601.958V52.384H603.398L603.638 54.4C604.406 52.912 605.942 52.072 607.622 52.072C610.814 52.072 612.134 53.968 612.134 56.896V64H610.478V57.256C610.478 54.544 609.254 53.584 607.334 53.584C604.958 53.584 603.614 55.312 603.614 57.928V64ZM614.643 57.856C614.643 54.688 616.683 52.072 620.091 52.072C622.107 52.072 623.643 53.008 624.387 54.712L624.555 52.384H625.995V63.64C625.995 67.096 623.787 69.352 620.379 69.352C617.403 69.352 615.315 67.672 614.859 64.864H616.515C616.875 66.736 618.315 67.84 620.403 67.84C622.779 67.84 624.363 66.232 624.363 63.808V61.048C623.571 62.68 621.963 63.64 619.971 63.64C616.659 63.64 614.643 61.024 614.643 57.856ZM616.299 57.832C616.299 60.208 617.763 62.152 620.211 62.152C622.731 62.152 624.219 60.328 624.219 57.832C624.219 55.36 622.779 53.536 620.235 53.536C617.739 53.536 616.299 55.48 616.299 57.832ZM638.771 64H637.139V53.776H634.811V52.384H637.139V48.712H638.771V52.384H641.099V53.776H638.771V64ZM644.911 63.976H643.255V46.504H644.911V54.4C645.655 53.008 647.071 52.072 649.015 52.072C652.063 52.072 653.431 53.968 653.431 56.896V64H651.775V57.256C651.775 54.544 650.503 53.584 648.703 53.584C646.207 53.584 644.911 55.432 644.911 57.664V63.976ZM661.604 64.288C658.196 64.288 655.916 61.84 655.916 58.192C655.916 54.568 658.172 52.072 661.484 52.072C664.628 52.072 666.764 54.304 666.764 57.592V58.408H657.524C657.644 61.24 659.132 62.872 661.628 62.872C663.524 62.872 664.748 62.056 665.18 60.52H666.764C666.14 62.968 664.34 64.288 661.604 64.288ZM661.484 53.488C659.3 53.488 657.86 54.928 657.572 57.208H665.108C665.108 54.976 663.668 53.488 661.484 53.488ZM683.724 64V53.776H678.204V64H676.548V53.776H674.772V52.384H676.548V50.128C676.548 47.512 677.964 46.504 679.692 46.504C680.1 46.504 680.604 46.528 680.988 46.6V48.04H679.98C678.588 48.04 678.204 48.76 678.204 50.128V52.384H685.38V64H683.724ZM684.54 49.072C683.868 49.072 683.388 48.592 683.388 47.92C683.388 47.248 683.868 46.744 684.54 46.744C685.188 46.744 685.692 47.248 685.692 47.92C685.692 48.592 685.188 49.072 684.54 49.072ZM694.843 52.24V53.728H693.931C691.795 53.728 690.427 55.168 690.427 57.376V64H688.771V52.384H690.331L690.451 54.184C690.907 52.936 692.131 52.12 693.763 52.12C694.123 52.12 694.435 52.144 694.843 52.24ZM696.06 60.736H697.644C697.644 62.08 698.652 62.92 700.284 62.92C702.084 62.92 703.14 62.152 703.14 60.904C703.14 59.944 702.66 59.392 701.292 59.056L699.3 58.552C697.284 58.048 696.3 56.992 696.3 55.408C696.3 53.368 698.004 52.072 700.5 52.072C702.948 52.072 704.532 53.416 704.604 55.576H702.996C702.948 54.232 702.012 53.44 700.452 53.44C698.82 53.44 697.908 54.136 697.908 55.384C697.908 56.272 698.532 56.896 699.804 57.208L701.796 57.712C703.812 58.216 704.724 59.152 704.724 60.832C704.724 62.92 702.948 64.288 700.308 64.288C697.692 64.288 696.06 62.896 696.06 60.736ZM710.115 64H708.483V53.776H706.155V52.384H708.483V48.712H710.115V52.384H712.443V53.776H710.115V64ZM722.911 64H721.255V52.384H722.695L722.887 54.04C723.463 52.816 724.759 52.072 726.391 52.072C728.215 52.072 729.583 53.032 730.135 54.544C730.663 53.032 732.079 52.072 733.951 52.072C736.471 52.072 738.127 53.704 738.127 56.392V64H736.519V56.728C736.519 54.736 735.415 53.56 733.639 53.56C731.695 53.56 730.543 55.024 730.543 56.824V64H728.911V56.704C728.911 54.736 727.783 53.584 726.031 53.584C724.087 53.584 722.911 55.024 722.911 56.8V64ZM744.794 64.288C742.322 64.288 740.858 62.896 740.858 60.856C740.858 58.72 742.49 57.376 745.202 57.16L749.042 56.848V56.464C749.042 54.184 747.674 53.464 745.97 53.464C743.954 53.464 742.754 54.376 742.754 55.936H741.242C741.242 53.584 743.162 52.072 746.018 52.072C748.706 52.072 750.674 53.416 750.674 56.488V64H749.282L749.066 61.96C748.346 63.424 746.762 64.288 744.794 64.288ZM745.178 62.944C747.626 62.944 749.042 61.24 749.042 58.72V58.096L745.61 58.36C743.426 58.552 742.538 59.512 742.538 60.808C742.538 62.224 743.594 62.944 745.178 62.944ZM755.654 64H753.998V52.384H755.438L755.678 54.4C756.446 52.912 757.982 52.072 759.662 52.072C762.854 52.072 764.174 53.968 764.174 56.896V64H762.518V57.256C762.518 54.544 761.294 53.584 759.374 53.584C756.998 53.584 755.654 55.312 755.654 57.928V64ZM773.314 58.192C773.314 54.64 775.81 52.072 779.218 52.072C782.626 52.072 785.122 54.64 785.122 58.192C785.122 61.72 782.626 64.288 779.218 64.288C775.81 64.288 773.314 61.72 773.314 58.192ZM774.994 58.168C774.994 60.904 776.722 62.8 779.218 62.8C781.69 62.8 783.442 60.904 783.442 58.168C783.442 55.48 781.69 53.56 779.218 53.56C776.722 53.56 774.994 55.48 774.994 58.168ZM789.427 64H787.771V52.384H789.211L789.451 54.4C790.219 52.912 791.755 52.072 793.435 52.072C796.627 52.072 797.947 53.968 797.947 56.896V64H796.291V57.256C796.291 54.544 795.067 53.584 793.147 53.584C790.771 53.584 789.427 55.312 789.427 57.928V64ZM806.656 59.272V58.6H808.336V59.272C808.336 61.312 809.44 62.656 811.528 62.656C813.712 62.656 814.72 61.288 814.72 59.248V46.816H816.448V59.296C816.448 62.416 814.432 64.288 811.528 64.288C808.432 64.288 806.656 62.248 806.656 59.272ZM828.298 52.384H829.954V64H828.514L828.298 62.032C827.65 63.376 826.042 64.288 824.218 64.288C821.482 64.288 819.994 62.416 819.994 59.584V52.36H821.674V59.056C821.674 61.816 822.898 62.8 824.746 62.8C826.978 62.8 828.298 61.312 828.298 58.552V52.384ZM833.404 69.064V52.384H834.844L835.012 54.736C835.828 52.936 837.46 52.072 839.404 52.072C842.764 52.072 844.78 54.64 844.78 58.144C844.78 61.648 842.836 64.288 839.404 64.288C837.436 64.288 835.876 63.448 835.06 61.768V69.064H833.404ZM835.084 58.192C835.084 60.856 836.572 62.8 839.116 62.8C841.636 62.8 843.1 60.856 843.1 58.192C843.1 55.504 841.636 53.584 839.116 53.584C836.572 53.584 835.084 55.504 835.084 58.192ZM848.235 49.192C847.563 49.192 847.011 48.64 847.011 47.968C847.011 47.296 847.563 46.72 848.235 46.72C848.907 46.72 849.483 47.296 849.483 47.968C849.483 48.64 848.907 49.192 848.235 49.192ZM847.419 64V52.384H849.075V64H847.419ZM855.193 64H853.561V53.776H851.233V52.384H853.561V48.712H855.193V52.384H857.521V53.776H855.193V64ZM864.432 64.288C861.024 64.288 858.744 61.84 858.744 58.192C858.744 54.568 861 52.072 864.312 52.072C867.456 52.072 869.592 54.304 869.592 57.592V58.408H860.352C860.472 61.24 861.96 62.872 864.456 62.872C866.352 62.872 867.576 62.056 868.008 60.52H869.592C868.968 62.968 867.168 64.288 864.432 64.288ZM864.312 53.488C862.128 53.488 860.688 54.928 860.4 57.208H867.936C867.936 54.976 866.496 53.488 864.312 53.488ZM878.312 52.24V53.728H877.4C875.264 53.728 873.896 55.168 873.896 57.376V64H872.24V52.384H873.8L873.92 54.184C874.376 52.936 875.6 52.12 877.232 52.12C877.592 52.12 877.904 52.144 878.312 52.24Z" fill="white"/>
</svg>
