<svg width="106" height="107" viewBox="0 0 106 107" fill="none" xmlns="http://www.w3.org/2000/svg">
<path fill-rule="evenodd" clip-rule="evenodd" d="M89.8128 106.844C88.4052 105.711 88.6687 104.483 88.8794 103.501L88.9005 103.402C89.698 98.5186 90.4955 93.6356 91.5162 88.7406C92.4442 84.2616 93.4016 79.7961 94.3591 75.3303C95.7952 68.6319 97.2308 61.9334 98.5678 55.1922C100.107 47.5795 99.8058 39.9368 97.7208 32.3957C96.3249 27.5477 94.312 22.8692 91.1292 18.8844C83.8339 9.53397 74.2702 5.19508 62.3717 6.27448C54.3079 7.04638 47.1453 10.2755 40.5576 14.9502C33.7198 19.9526 27.9825 26.1914 22.5333 32.7722C15.2146 41.9229 8.91866 51.7322 4.47224 62.5562C4.3937 62.7385 4.31838 62.9288 4.24248 63.1207C4.01242 63.702 3.77704 64.2969 3.43063 64.7207C3.00952 65.1926 2.14191 65.6899 1.64316 65.5838C1.05257 65.4382 0.292492 64.6751 0.123022 64.0577C-0.0987176 63.3088 0.0215026 62.2717 0.154423 61.4579C0.950413 57.3364 2.42884 53.4001 4.32686 49.7536C11.4315 36.0461 20.6467 24.0103 32.2482 13.7651C38.7725 7.97418 46.1867 3.65578 54.7523 1.46678C68.4809 -2.09072 80.6078 0.848277 91.2518 10.0083C96.7179 14.7592 100.12 21.0162 102.522 27.8226C106.008 37.927 106.185 48.1299 103.946 58.3805C102.204 66.5714 100.046 74.786 97.9098 82.9186L97.6848 83.7756C96.3411 89.0916 94.7034 94.3816 93.0916 99.5886L93.0915 99.5896L92.9249 100.128C92.4754 101.676 91.8422 103.146 91.2091 104.615C90.9468 105.224 90.5585 105.778 90.1036 106.427C90.0093 106.562 89.9122 106.7 89.8128 106.844ZM71.3933 98.7976C71.406 98.5336 71.4011 98.2616 71.3962 97.9856C71.3851 97.3726 71.3737 96.7436 71.5561 96.1456C72.8539 90.6076 74.1517 85.0686 75.5413 79.5697C76.0797 77.5337 76.6384 75.494 77.1984 73.4498C78.9774 66.9558 80.7691 60.4157 81.9606 53.8069C83.7408 43.3584 81.9348 33.6513 75.7147 25.0909C74.3528 23.1974 72.7804 21.5398 71.037 20.0264C68.2581 17.6311 64.9109 17.0598 61.377 17.9326C57.4885 18.8703 54.0449 20.5442 50.7186 22.7042C44.8417 26.4874 40.3013 31.7175 36.5082 37.4875C32.4255 43.6771 28.3031 49.9585 24.4959 56.2669C23.1127 58.5292 22.0395 60.925 20.9662 63.3209C20.6085 64.1195 20.2507 64.9181 19.8815 65.7118C19.6441 66.2628 19.4296 66.8237 19.2151 67.3846C19.0006 67.9456 18.7861 68.5065 18.5487 69.0575C17.9946 70.3432 17.0352 70.8009 15.9063 70.6411C14.8169 70.3894 13.8732 69.5472 13.8889 68.2473C13.8919 66.7242 14.1182 65.1883 14.6199 63.7712C16.285 58.3909 18.9603 53.4459 22.0553 48.7907C23.2349 47.0023 24.4026 45.1996 25.5708 43.3959C28.4457 38.9573 31.3245 34.5129 34.3953 30.2615C38.5826 24.3347 43.8577 19.4211 50.3379 16.0068C52.5988 14.8033 55.1351 13.7184 57.5528 12.9091C65.3709 10.1803 72.1556 12.1239 77.606 18.1748C84.4451 25.8041 88.3537 34.6751 88.5431 45.1012C88.6102 51.0101 87.8635 56.7861 86.1192 62.3501C83.3304 71.6017 80.4496 80.8137 77.3457 90.0386C76.5773 92.2416 75.4643 94.3716 74.3459 96.5116C74.1188 96.9466 73.8915 97.3816 73.6669 97.8176C73.6386 97.8546 73.6109 97.8926 73.5834 97.9296C73.5538 97.9706 73.5246 98.0116 73.4953 98.0526C73.0688 98.6486 72.6447 99.2406 71.3933 98.7976ZM44.6018 34.8774C38.6651 42.337 34.1709 50.7449 30.3196 59.4297C29.7217 60.8173 29.0419 62.1695 28.3242 63.5971C28.2819 63.6813 28.2394 63.7658 28.1968 63.8506C27.5367 65.635 26.8767 67.4195 26.4003 69.2831C25.9239 71.1467 26.4338 72.2376 27.6277 72.752C28.8612 73.1747 29.952 72.6647 30.8876 70.999C31.4543 69.9365 31.9688 68.7426 32.4832 67.5488C36.1763 59.2312 40.3807 51.243 45.3722 43.7027C48.5067 38.9556 52.1526 34.5378 56.8468 31.225C58.2669 30.2036 59.923 29.3928 61.4999 28.7656C63.5629 28.0213 65.4788 28.6291 66.7488 30.483C67.5738 31.6008 68.4115 32.9417 68.5795 34.3208C68.9819 36.672 69.2006 38.944 68.9729 41.2414C68.6376 44.7992 68.0267 48.2382 67.1008 51.6504C65.4083 57.5996 63.6342 63.5136 61.8601 69.4277C60.973 72.3847 60.086 75.3417 59.2091 78.3031C58.9448 79.1692 58.7327 80.1668 58.6521 81.112C58.6379 81.6503 58.9514 82.4388 59.4106 82.6367C59.8302 82.9266 60.7628 82.7836 61.1443 82.4037C61.9993 81.6832 62.7101 80.7918 63.2372 79.8211C63.5349 79.24 63.8431 78.6583 64.1526 78.0743C65.2683 75.9688 66.4002 73.8325 67.1139 71.5827C69.3995 64.5098 71.5933 57.3973 73.472 50.258C74.6495 45.7565 75.3283 41.149 74.9304 36.513C74.6482 33.1248 73.7486 29.906 71.6662 27.1576C68.7066 23.16 64.4157 21.7465 59.7514 23.221C57.8594 23.8213 55.9009 24.8285 54.218 25.9544C50.4578 28.363 47.4055 31.4033 44.6018 34.8774Z" fill="black"/>
</svg>
