<svg width="39" height="55" viewBox="0 0 39 55" fill="none" xmlns="http://www.w3.org/2000/svg">
<path fill-rule="evenodd" clip-rule="evenodd" d="M35.27 43.433H36.0656C36.2098 43.6546 36.3601 43.8857 36.5117 44.1197C36.6256 44.017 36.7077 43.9433 36.8315 43.8319C37.1264 43.9975 37.4313 44.169 37.7307 44.3372C37.768 44.5787 37.7999 44.7858 37.833 45.002C38.019 44.8968 38.1652 44.8135 38.3023 44.7356C38.4908 45.1267 38.6569 45.4704 38.8362 45.8424C38.7865 45.859 38.6623 45.9012 38.4982 45.9567V46.4736C37.9018 46.6783 37.4495 47.1948 36.7739 47.0179C36.7346 47.476 36.3158 47.6268 36.0499 47.686C35.4195 47.826 34.8901 48.323 34.297 48.3346C33.6049 48.3479 33.0797 48.7285 32.477 48.9004C31.7538 49.1071 31.0095 49.3279 30.2921 49.6046C29.5925 49.8742 28.8573 50.2267 28.0546 50.201C26.7855 50.9371 25.3109 51.0212 23.9436 51.4399C22.8787 51.7659 21.8047 52.1722 20.6569 52.2563C20.2577 52.2857 19.877 52.6995 19.4607 52.089C19.158 52.6432 18.8017 52.9493 18.2069 52.9294C17.7894 52.9157 17.3508 53.0147 16.9494 53.1477C15.8986 53.4943 14.8035 53.6049 13.7294 53.8257C12.7432 54.0287 11.7293 54.0987 10.7629 54.3124C9.46067 54.6007 8.18038 54.399 6.8947 54.481C6.66813 54.4955 6.43576 54.3116 6.1976 54.2764C5.93955 54.2383 5.60363 54.3662 5.42594 54.2432C5.19523 54.0833 5.02458 54.2279 4.83653 54.1906C4.55902 54.1355 4.28606 54.056 3.95511 53.9727C3.83334 53.7586 3.42328 53.6729 3.42411 53.2504C3.42452 53.1439 3.22156 52.9406 3.12174 52.9464C2.36541 52.9898 2.1902 52.3673 1.86298 51.8421C1.73624 50.8203 2.23369 50.1041 3.19174 49.6622C3.31766 49.6038 3.45103 49.5483 3.58647 49.5267C4.11831 49.4426 4.68576 49.4604 5.17659 49.2736C5.7163 49.0686 6.24316 49.0848 6.78535 49.0707C7.306 49.0574 7.91943 49.2057 8.32121 48.9796C8.76896 48.7273 9.32772 49.127 9.64872 48.625C10.0016 48.9974 10.3496 48.4403 10.7012 48.6196C11.0773 48.2961 11.5449 48.4701 11.9583 48.3765C12.3414 48.2899 12.7362 48.2398 13.104 48.1433C14.3155 47.8235 15.5428 47.6346 16.7813 47.4897C17.3181 47.02 18.0591 47.4661 18.6356 47.051C19.1306 46.6948 19.7938 46.7598 20.3682 46.6327C21.021 46.4881 21.7053 46.3784 22.3763 46.269C23.003 46.1667 23.6193 45.994 24.2489 45.8768C25.1771 45.704 26.0619 45.3019 27.022 45.2306C27.4262 44.7539 28.0633 45.1652 28.5458 44.8019C28.9505 44.4967 29.5498 44.4445 30.0407 44.3658C31.239 44.174 32.2981 43.59 33.4628 43.3365C33.7387 43.2764 34.0141 43.2126 34.3335 43.1406C34.3757 43.4172 34.4076 43.6243 34.4577 43.9516C34.7398 43.7718 34.9651 43.6277 35.27 43.433Z" fill="black"/>
<path fill-rule="evenodd" clip-rule="evenodd" d="M16.3891 30.5881C16.3274 30.6498 16.274 30.7032 16.2209 30.7567C16.0747 30.5309 15.9281 30.3056 15.7467 30.026C15.675 30.229 15.6291 30.3599 15.5553 30.5682C15.224 30.5276 14.7758 30.603 14.5418 30.4133C14.162 30.106 13.9134 30.5463 13.5837 30.4294C13.2847 30.3234 12.8502 30.4634 12.6327 30.2936C12.2782 30.0169 11.9207 30.1718 11.5798 30.0844C11.2456 29.9991 10.9291 29.8425 10.5799 29.7071C10.3931 29.7659 10.1724 29.8355 9.88201 29.9266C9.77308 29.7236 9.66538 29.5211 9.47609 29.167C9.36053 29.5402 9.32201 29.6632 9.2603 29.8632C8.22438 29.2676 6.9826 29.6048 5.94586 29.0833C5.91976 28.9648 5.89657 28.8625 5.83609 28.592C5.74414 28.8605 5.70562 28.9744 5.66006 29.1065C5.39746 29.0373 5.11621 28.9632 4.82379 28.8857C4.80432 28.7093 4.78485 28.5316 4.75627 28.2715C4.64858 28.3493 4.58272 28.397 4.48331 28.469C4.3603 28.4073 4.21864 28.3361 4.01858 28.2358C3.94154 28.4098 3.87527 28.5593 3.81148 28.7035C3.55964 28.5258 3.30698 28.3473 3.00834 28.1364C2.99675 28.0312 2.97728 27.8531 2.9516 27.6228C2.69189 27.7533 2.4587 27.8701 2.15799 28.0213C1.76243 27.4476 0.953491 27.1817 0.699586 26.4105C0.80355 26.2957 0.876864 26.2149 0.950592 26.1342C0.734379 25.918 0.63497 25.978 0.405503 26.4643C0.332189 26.4693 0.258462 26.4805 0.185976 26.4751C0.156154 26.473 0.128817 26.4349 0.0323077 26.3616C0.102722 26.2 0.181006 26.0207 0.267574 25.8219C0.195503 25.6359 0.112663 25.4222 0 25.1322C0.287041 25.2366 0.461834 25.2996 0.678876 25.3787C0.610533 25.1094 0.56 24.9094 0.473846 24.5706C0.869823 24.7495 1.11586 24.8609 1.39669 24.9877C1.33166 25.0676 1.26994 25.143 1.19497 25.2349C1.38923 25.3335 1.58556 25.4338 1.8258 25.5564V24.7959C2.08219 24.6654 2.29965 24.5548 2.53367 24.4355C3.06923 24.658 3.61473 24.8849 4.17183 25.1165C4.42077 25.0191 5.37509 25.1422 5.80751 25.3385C5.88373 25.2693 5.96243 25.1977 6.08047 25.0908C6.30994 25.2002 6.56053 25.3194 6.82396 25.4449C6.75107 25.5278 6.68314 25.6061 6.61479 25.6839C6.66491 25.7208 6.73325 25.8057 6.77095 25.7937C7.20172 25.6599 7.6068 25.331 8.07568 25.7693C8.16266 25.8505 8.4671 25.7009 8.67006 25.6545C9.59953 25.4425 10.4528 25.575 11.2033 26.1785C11.3785 26.1309 11.5711 26.0344 11.7612 26.0381C11.9853 26.0422 12.3428 26.2464 12.4082 26.1681C12.7458 25.7631 12.9218 26.2564 13.1737 26.2593C13.4193 26.2626 13.6463 26.2767 13.906 26.3947C14.3454 26.5952 14.8653 26.6374 15.3573 26.6996C17.0117 26.9079 18.6266 27.2567 20.2234 27.7562C21.456 28.1414 22.7119 28.4595 23.8969 28.9744C24.6951 29.3206 25.5628 29.642 26.1899 30.2074C26.7566 30.7173 27.4276 31.1692 27.8695 31.8974C27.8074 31.9947 27.7324 32.1128 27.6459 32.249C27.6939 32.3049 27.7614 32.3828 27.8393 32.4723C27.5734 32.7241 27.3033 32.9797 26.9997 33.2671C26.6547 33.1628 26.2943 33.017 26.0922 32.5199C26.0495 32.8049 26.0189 33.012 25.9853 33.2357H25.6635C25.6067 33.0882 25.5575 32.9586 25.5069 32.826C25.3851 32.9035 25.2733 32.9747 25.1213 33.0716C25.0082 32.9871 24.896 32.9026 24.7862 32.8206C24.6139 32.9801 24.4312 33.1503 24.2428 33.3247C23.9686 32.9871 23.7776 32.6848 23.5212 32.4553C23.2723 32.2325 22.7521 32.4478 22.634 31.875C22.6796 31.8042 22.7554 31.687 22.8734 31.5043C22.6378 31.4923 22.4211 31.4811 22.1208 31.4658C22.2712 31.6344 22.342 31.7143 22.492 31.8833C22.2062 31.8684 21.9692 31.9222 21.8085 31.8352C21.4283 31.6294 21.0385 31.52 20.6235 31.4074C20.2325 31.3013 19.8576 31.2566 19.465 31.2148C19.1158 31.1775 18.7774 31.0445 18.4282 31.0044C18.0596 30.9625 17.6748 31.0276 17.3136 30.958C16.9918 30.8963 16.6931 30.7148 16.3891 30.5881Z" fill="black"/>
<path fill-rule="evenodd" clip-rule="evenodd" d="M9.33081 2.44789V1.49854C9.71602 1.09263 10.1609 0.895055 10.8323 0.961327C10.8948 1.0657 11.0104 1.25831 11.1463 1.4857C11.8926 1.02635 12.1768 2.02334 12.7629 1.86511C13.6045 2.42263 14.2321 3.19967 15.0952 3.68635C15.2216 3.7576 15.3115 3.89346 15.4171 4.00073C16.1597 4.75334 16.9881 5.39659 17.8538 6.00464C18.4494 6.4234 18.9871 6.93079 19.5181 7.43363C20.0976 7.98245 20.7019 8.48695 21.4064 8.86843C21.5332 8.93718 21.621 9.07677 21.7287 9.18198C22.1561 9.60073 22.5422 10.0791 23.026 10.4188C23.4157 10.6917 23.7036 11.055 24.0486 11.3602C24.6451 11.8875 25.1409 12.5291 25.6731 13.1285C26.2087 13.7315 26.7604 14.323 27.2574 14.9567C27.4645 15.2214 27.5486 15.5826 27.6944 15.9123C27.3614 16.2039 27.081 16.4499 26.6486 16.8294C26.3292 17.0099 26.1689 16.4098 25.7916 16.2718C25.6677 16.3667 25.5567 16.4524 25.4809 16.5104C25.0361 16.4185 24.6177 16.3319 24.0097 16.206C22.7621 15.185 21.3091 14.1006 19.9518 12.8849C19.3068 12.3079 18.5783 11.7682 17.8004 11.3172C17.2445 10.9949 16.8105 10.4627 16.3068 10.0394C14.9722 8.91854 13.6315 7.76789 12.5036 6.44949C11.4445 5.21062 10.1484 4.15772 9.33081 2.44789Z" fill="black"/>
</svg>
