<svg width="112" height="110" viewBox="0 0 112 110" fill="none" xmlns="http://www.w3.org/2000/svg">
<path fill-rule="evenodd" clip-rule="evenodd" d="M111.594 43.4594C109.998 44.3064 108.973 43.5803 108.154 42.9996L108.071 42.9411C103.898 40.2836 99.7243 37.626 95.6279 34.7585C91.8773 32.1402 88.1507 29.5003 84.4238 26.8601C78.8337 22.9 73.2433 18.9404 67.5748 15.0546C61.185 10.6396 54.0424 7.90387 46.29 6.84773C41.2843 6.21977 36.1911 6.22567 31.2744 7.58019C19.8055 10.5994 12.0483 17.6787 8.35048 29.0394C5.88152 36.7546 6.02605 44.6102 7.72575 52.5071C9.62805 60.763 13.1004 68.4949 17.0007 76.0968C22.5259 86.4298 29.0595 96.0824 37.2547 104.435C37.3913 104.579 37.5365 104.723 37.6829 104.869C38.1265 105.309 38.5805 105.76 38.8334 106.246C39.1011 106.819 39.2162 107.812 38.9221 108.229C38.5555 108.714 37.5546 109.112 36.9204 109.024C36.1447 108.933 35.239 108.413 34.5434 107.971C31.0693 105.614 28.0344 102.704 25.4312 99.5226C15.6337 87.5903 8.20446 74.3772 3.36142 59.6767C0.610895 51.3981 -0.435584 42.882 0.928781 34.147C3.07044 20.1276 10.5514 10.1409 23.1652 3.96898C29.6859 0.817967 36.7773 0.157679 43.9794 0.632893C54.6398 1.41178 64.0865 5.27061 72.6248 11.3687C79.466 16.1981 86.165 21.4192 92.7973 26.5878L93.4962 27.1323C97.8523 30.4626 102.068 34.0528 106.219 37.5864L106.22 37.5869L106.648 37.9521C107.894 38.9753 108.995 40.1367 110.096 41.2975C110.552 41.7787 110.908 42.3539 111.325 43.0278C111.412 43.1676 111.501 43.3113 111.594 43.4594ZM96.9393 57.2164C96.7016 57.1006 96.4497 56.9979 96.1941 56.8937C95.6264 56.6622 95.0438 56.4248 94.5661 56.0215C89.988 52.6459 85.4089 49.27 80.9029 45.8254C79.2439 44.5281 77.5896 43.2107 75.9316 41.8903C70.6645 37.6957 65.3601 33.4713 59.7559 29.7713C50.8549 24.017 41.2218 21.8507 30.9028 24.1931C28.6258 24.6984 26.4826 25.4902 24.4045 26.496C21.1078 28.1058 19.2635 30.9568 18.6727 34.5487C18.0019 38.492 18.1829 42.3165 18.857 46.2249C20.0175 53.1172 23.0346 59.3515 26.8425 65.1118C30.9218 71.3036 35.0698 77.5681 39.3669 83.5536C40.9009 85.7165 42.6797 87.6472 44.4586 89.5779C45.0516 90.2214 45.6445 90.865 46.2284 91.5172C46.6412 91.9525 47.0722 92.3708 47.5031 92.789C47.9342 93.2072 48.3651 93.6254 48.7779 94.0608C49.7412 95.0768 49.7836 96.1389 49.1918 97.1135C48.5311 98.0155 47.3851 98.5508 46.1967 98.024C44.798 97.4209 43.4757 96.6076 42.371 95.5879C38.0826 91.937 34.5924 87.5292 31.534 82.8499C30.3553 81.0609 29.1588 79.2771 27.9615 77.4926C25.0154 73.1009 22.0655 68.7034 19.3686 64.2055C15.5721 58.0211 13.1355 51.2364 12.5517 43.935C12.3368 41.3828 12.3394 38.6242 12.5486 36.0832C13.1222 27.8225 17.5827 22.3531 25.292 19.7289C34.9994 16.4506 44.6928 16.355 54.3495 20.2904C59.8065 22.5577 64.8206 25.5206 69.2466 29.3167C76.65 35.5263 83.9808 41.8048 91.2355 48.2935C92.9573 49.868 94.4762 51.7304 96.0021 53.6018C96.3124 53.9819 96.6226 54.3623 96.9347 54.7406C96.9576 54.7812 96.9816 54.8216 97.0048 54.8614C97.0308 54.9048 97.0569 54.9478 97.0831 54.9909C97.4627 55.6178 97.8396 56.2409 96.9393 57.2164ZM27.6338 56.6447C32.1495 65.041 38.1054 72.4853 44.5691 79.448C45.6087 80.5444 46.5835 81.7022 47.6126 82.9244C47.6733 82.9965 47.7342 83.0689 47.7954 83.1414C49.1751 84.4514 50.555 85.7614 52.08 86.9338C53.605 88.1061 54.8085 88.0675 55.7519 87.173C56.6265 86.206 56.5878 85.0024 55.4257 83.486C54.6726 82.5464 53.7781 81.603 52.8837 80.6597C46.6951 73.9872 41.0107 66.9746 36.0483 59.4151C32.921 54.6633 30.2978 49.5713 29.1035 43.9513C28.7245 42.2436 28.6321 40.402 28.6772 38.7056C28.8063 36.5162 30.12 34.995 32.3244 34.5585C33.6769 34.2409 35.2394 33.9995 36.5731 34.3887C38.8926 34.9456 41.0669 35.6401 43.0885 36.7549C46.2261 38.4654 49.1459 40.3823 51.917 42.5782C56.7174 46.4786 61.4534 50.4401 66.1895 54.4016C68.5574 56.3824 70.9254 58.3631 73.3015 60.3362C73.9933 60.9205 74.8265 61.5087 75.6634 61.9553C76.1525 62.1805 77.0008 62.2032 77.3637 61.8592C77.7955 61.5878 78.0316 60.6743 77.8329 60.174C77.5077 59.1042 76.9686 58.0996 76.2843 57.2326C75.8675 56.7299 75.4544 56.2174 75.0397 55.7028C73.5444 53.8475 72.0272 51.9652 70.2408 50.4225C64.6414 45.5341 58.9694 40.7145 53.1485 36.1739C49.4755 33.3175 45.5086 30.8776 41.0911 29.416C37.8659 28.3399 34.5531 27.8979 31.2064 28.7285C26.3659 29.8728 23.3756 33.2592 22.8923 38.1271C22.6982 40.1025 22.852 42.2995 23.2234 44.2899C23.9549 48.6951 25.546 52.6986 27.6338 56.6447Z" fill="black"/>
</svg>
