<svg width="125" height="140" viewBox="0 0 125 140" fill="none" xmlns="http://www.w3.org/2000/svg">
<path d="M76.4734 44.0969C67.845 40.5737 62.8305 33.8083 58.9151 26.0535C56.7129 21.7236 55.0392 17.1941 54.4379 12.3259C54.1696 10.2699 54.0376 8.24336 54.42 6.21401C54.6857 4.98713 55.0274 3.80521 55.6417 2.68232C56.7803 0.588311 58.8788 -0.270383 61.2415 0.155428C62.7258 0.419628 64.0764 1.16868 65.2613 2.02454C67.3273 3.55638 69.0321 5.43814 70.5261 7.50262C74.4894 12.9273 76.8981 19.0716 78.4466 25.629C79.4387 30.0109 80.068 34.4856 80.2435 38.9477C80.2603 39.2653 80.3221 39.507 80.3544 39.885C82.2631 40.2982 84.1227 40.0157 86.0118 39.5969C93.9012 37.9652 101.223 34.8691 107.947 30.445C110.149 28.9806 112.258 27.4108 114.261 25.6751C118.193 22.4161 121.212 18.3601 123.245 13.7196C123.619 12.9157 123.993 12.1119 124.427 11.2925C124.472 11.2167 124.593 11.1857 124.895 11.1084C124.883 11.5624 124.899 11.88 124.856 12.2131C123.782 17.8317 121.372 22.7618 117.583 27.0791C112.83 32.4153 107.102 36.4558 100.733 39.5012C95.5117 41.9958 90.1354 43.886 84.4049 44.6436C83.1652 44.8319 81.8187 44.8544 80.4272 44.9528C80.3836 45.2859 80.3555 45.6794 80.3273 46.0729C80.1021 51.9895 79.5282 57.8021 78.0311 63.5293C76.8304 68.1501 75.1899 72.5616 72.7004 76.6751C71.3355 78.8914 69.7428 80.9727 67.8003 82.6929C62.8005 87.0622 57.3103 87.5008 51.753 83.9003C51.4494 83.7204 51.1458 83.5405 50.6904 83.2707C50.6187 83.9972 50.5611 84.527 50.4584 85.1328C50 89.8857 49.3446 94.6246 48.1595 99.3059C47.122 103.306 45.7358 107.201 43.5612 110.784C42.5266 112.529 41.3093 114.064 39.7885 115.418C36.0987 118.616 31.9719 119.349 27.3927 117.559C26.5438 117.261 25.7848 116.811 24.8446 116.408C24.7728 117.135 24.7152 117.664 24.673 118.255C24.2777 123.507 23.5043 128.791 22.1701 133.896C21.8594 135.199 21.4124 136.472 20.8894 137.701C20.6659 138.337 20.1543 138.855 19.7185 139.417C19.3123 139.843 18.7683 139.982 18.2216 139.606C17.6748 139.231 17.7325 138.701 17.9715 138.125C18.434 136.912 18.8206 135.655 19.1468 134.412C20.7621 128.14 21.575 121.751 21.9338 115.35C21.9759 114.76 21.9578 114.185 21.3956 113.749C16.0449 109.194 12.3824 103.435 9.4129 97.1124C5.23476 88.3303 2.47626 79.0563 1.16823 69.4109C0.711634 66.1153 0.527713 62.8788 1.09998 59.5776C1.30527 58.3661 1.63143 57.1238 2.12485 56.0318C3.36615 53.3321 5.81319 52.5774 8.48364 53.9547C10.1225 54.8232 11.4 56.0416 12.5427 57.4877C14.8575 60.2436 16.5692 63.4113 17.9942 66.7167C20.7669 73.0254 22.4519 79.6126 23.4873 86.4301C24.7729 94.7288 25.2418 103.108 25.06 111.46C25.0501 112.428 25.2201 113.093 26.1603 113.496C27.3284 114.034 28.4668 114.709 29.6643 115.111C32.3319 115.974 34.7805 115.476 36.9803 113.755C38.487 112.597 39.599 111.153 40.5436 109.56C42.2389 106.872 43.3578 103.946 44.3251 100.931C46.2876 94.5052 47.2354 87.8887 47.7137 81.1991C47.7559 80.6089 47.7081 80.1704 47.2668 79.7038C43.1404 74.9003 40.4168 69.2873 38.2667 63.3985C35.9324 57.0421 34.3235 50.5001 33.7574 43.7557C33.5468 41.1698 33.457 38.5531 33.8971 35.9939C34.0728 34.9188 34.3695 33.8127 34.8334 32.8571C35.9706 30.5059 38.2828 29.9789 40.3038 31.5866C41.2764 32.368 42.0987 33.3166 42.8154 34.3566C44.783 37.2657 46.0113 40.557 47.1186 43.8793C50.4898 54.5418 51.3817 65.581 51.003 76.6879C50.9748 77.0814 51.0071 77.4594 50.9185 77.8684C50.8313 78.5346 51.0914 79.0475 51.5776 79.4382C52.702 80.3095 53.7969 81.3172 55.0562 81.9608C57.9853 83.5938 60.965 83.4111 63.6778 81.4295C65.0947 80.4233 66.3583 79.0699 67.4857 77.687C69.4396 75.2557 70.7863 72.4646 71.9208 69.5991C74.3092 63.5799 75.455 57.2343 75.9951 50.7865C76.2412 48.7276 76.3046 46.458 76.4734 44.0969ZM22.0423 110.236C22.1309 109.827 22.1604 109.69 22.1744 109.494C22.2181 109.16 22.1857 108.782 22.2293 108.449C22.4408 99.961 21.8805 91.4768 20.2618 83.1345C19.0941 77.0591 17.443 71.1071 14.5985 65.525C13.314 63.0206 11.9844 60.5922 10.0365 58.5151C9.16932 57.6423 8.19673 56.861 7.13418 56.2314C6.14752 55.6467 5.25644 55.939 4.83892 57.076C4.45093 58.0766 4.15429 59.1826 4.03894 60.2423C3.55941 63.9061 3.97241 67.5347 4.58219 71.1775C5.97185 79.1279 8.37345 86.7548 11.6816 94.1499C14.0553 99.4017 16.821 104.424 20.6424 108.791C21.0528 109.137 21.4337 109.619 22.0423 110.236ZM76.2475 38.6821C76.2433 37.9105 76.2406 37.3962 76.1928 36.9577C76.0018 35.2038 75.8866 33.4949 75.6351 31.7564C74.7388 25.4829 73.0117 19.4862 69.9705 13.89C68.3965 11.009 66.5666 8.38662 64.1337 6.17599C63.2216 5.37917 62.2195 4.73411 61.1724 4.16494C59.7767 3.49178 59.0528 3.93448 58.5917 5.4045C58.4132 5.96524 58.3105 6.57095 58.3288 7.14573C58.3821 8.61294 58.3904 10.156 58.6405 11.6373C59.5622 17.003 61.6014 21.9541 64.3503 26.6592C66.7325 30.6856 69.6417 34.2552 73.4998 37.0027C74.2896 37.5732 75.1849 38.0525 76.2475 38.6821ZM38.305 34.0938C38.1842 34.1247 38.0029 34.1711 37.8974 34.2624C37.7343 34.8836 37.4349 35.4753 37.3322 36.081C37.2029 37.3374 37.0285 38.6697 37.0354 39.9556C37.0688 46.128 38.3419 52.112 40.1743 58.0174C41.8072 63.3943 43.9237 68.6478 46.8399 73.5034C47.0689 73.8955 47.3585 74.2721 47.648 74.6487C47.887 74.0725 48.0051 73.5272 47.9419 73.0283C47.7551 69.2774 47.7651 65.5402 47.3971 61.8357C46.8312 55.0913 45.5244 48.4721 43.0847 42.207C42.2865 40.0933 41.1257 38.0724 39.9803 36.1119C39.6431 35.2968 38.9136 34.7108 38.305 34.0938Z" fill="white"/>
</svg>
