<svg width="119" height="39" viewBox="0 0 119 39" fill="none" xmlns="http://www.w3.org/2000/svg">
<path fill-rule="evenodd" clip-rule="evenodd" d="M66.5294 23.1618C66.2167 23.2115 65.933 23.3519 65.754 23.2678C65.1584 22.9878 64.5143 22.9787 63.8951 22.8561C63.1359 22.7053 62.3195 22.7459 61.5938 22.5687C60.5968 22.3251 59.577 22.1453 58.5813 21.9929C57.5549 21.8355 56.5546 21.5145 55.5038 21.4656C55.0337 21.4437 54.5756 21.1823 54.1079 21.0415C54.0578 21.0266 53.9828 21.0924 53.9021 21.1289C53.9083 21.2246 53.9153 21.3265 53.924 21.4565C54.5412 21.5435 55.1944 21.512 55.7299 21.7481C56.2108 21.9598 56.7398 21.7552 57.0976 21.9743C57.528 22.2377 58.0196 21.9751 58.3415 22.2406C58.7201 22.5533 59.1583 22.2112 59.4971 22.4643C59.903 22.7675 60.4013 22.4622 60.7795 22.6378C61.3105 22.8847 61.9525 22.6378 62.3559 22.8992C62.9027 23.2533 63.5654 22.7766 64.0073 23.2948C64.6059 23.1614 65.1476 23.4559 65.7196 23.5209C66.3662 23.5946 67.0488 23.5673 67.6469 23.7781C68.1572 23.9583 68.7147 23.8075 69.1223 24.0163C69.5005 24.2101 69.882 24.0515 70.1678 24.2197C70.5534 24.4462 70.9386 24.3766 71.3267 24.4342C71.6502 24.4823 71.9753 24.5461 72.2976 24.6227C72.8903 24.7639 73.4814 24.9855 74.1147 24.8799C74.2613 24.8555 74.4978 24.8145 74.5521 24.8869C74.8909 25.3388 75.4115 24.9354 75.7918 25.1897C76.225 25.4792 76.7304 25.2738 77.2009 25.3256C77.3496 25.3421 77.5571 25.2647 77.642 25.3397C77.9614 25.6193 78.3822 25.4329 78.6742 25.5799C79.0768 25.782 79.3875 25.4908 79.7424 25.5509C80.273 25.6395 80.8073 25.71 81.3417 25.7783C81.7977 25.8367 82.2554 25.8806 82.7682 25.9374C82.7839 25.9241 82.8614 25.8582 82.9053 25.821C83.1704 25.9572 83.4069 26.079 83.5854 26.1714C84.0563 25.9374 84.4672 25.9183 84.8756 26.1527C85.3263 26.4112 85.7094 26.1179 86.1012 25.9966C86.5523 25.857 86.8862 26.5222 87.4288 26.0807C87.7009 25.8595 88.2588 25.9883 88.7364 25.956C88.0115 25.5393 87.2805 25.4606 86.5643 25.5712C85.8275 25.6859 85.1453 25.1491 84.4154 25.4639C83.988 25.1483 83.6015 25.379 83.201 25.5766C83.0092 25.4064 82.8216 25.2394 82.6066 25.0481C82.3573 25.1462 82.1332 25.2349 81.8979 25.3277C81.5682 25.0969 81.2236 24.935 80.8761 25.3132C80.7336 25.1711 80.6007 25.0381 80.4449 24.882C79.5979 24.8401 78.714 24.9768 77.8603 24.66C77.4995 24.5262 77.1015 24.4616 76.7154 24.4326C75.991 24.3787 75.274 24.3634 74.5446 24.2474C73.7663 24.124 72.9851 23.8137 72.1601 23.9575C72.0263 23.9811 71.8581 23.8055 71.6974 23.7168C71.5972 23.8017 71.5102 23.9364 71.4344 23.9306C70.8288 23.8842 70.2241 23.8191 69.6223 23.7384C69.5307 23.7259 69.4537 23.6025 69.3692 23.5304C69.293 23.6 69.2122 23.6729 69.09 23.7848C68.8067 23.6398 68.5051 23.4853 68.2028 23.3308C68.1775 23.3565 68.1543 23.4004 68.1237 23.407C67.6337 23.5064 67.1814 23.1543 66.6806 23.2827C66.6193 23.2985 66.5162 23.1506 66.5294 23.1618ZM18.234 13.769C18.1959 13.6161 18.1702 13.5142 18.1304 13.3556C18.0397 13.4227 17.9689 13.4757 17.8893 13.5353C17.3281 13.2226 16.7648 12.8896 16.1845 12.591C15.4058 12.1904 14.6093 11.8475 13.8625 11.3591C13.2288 10.9449 12.4269 10.7072 11.8959 10.1666C11.3934 9.65678 10.5866 9.71519 10.2018 9.08767C9.43509 8.98495 9.05734 8.263 8.41243 7.9569C8.22272 7.86702 8.09515 7.703 7.83917 7.6885C7.58112 7.67317 7.58444 7.61146 7.29574 7.06803C7.21663 7.05684 7.11308 7.03903 7.0087 7.02951C6.93456 7.02246 6.80574 7.05146 6.79166 7.02164C6.45118 6.29968 5.49894 6.48069 5.0926 5.86436C5.05408 5.80637 5.02923 5.69454 4.9874 5.68874C3.79822 5.53175 3.08414 4.49584 2.03083 4.09862C1.63651 3.94951 1.47704 3.5382 1.10633 3.37749C0.947692 3.30832 0.801065 3.20974 0.63 3.11406C0.584852 2.9372 0.566213 2.7156 0.470947 2.53418C0.375266 2.35193 0.203373 2.20903 0 1.97459C0.605976 1.70619 1.17302 1.91826 1.68746 1.64365C1.2716 1.62418 0.85574 1.60471 0.410059 1.58359C0.385207 1.49164 0.35787 1.39016 0.330533 1.28992C1.76408 0.830987 1.78396 0.782526 3.46562 1.47093C4.65521 1.95844 5.93675 2.27696 6.95609 3.13104C7.93361 3.3514 8.70899 3.98886 9.58213 4.42252C10.7725 5.014 11.9017 5.72643 13.0792 6.344C14.5612 7.12187 16.0611 7.86619 17.5625 8.60637C18.9679 9.29933 20.4168 9.88625 21.8785 10.457C22.8428 10.8335 23.7971 11.2763 24.7634 11.669C25.7302 12.0616 26.7102 12.422 27.6873 12.7898C28.4038 13.059 29.1067 13.4156 29.8494 13.5532C30.6351 13.6985 31.2233 14.2532 31.9929 14.394C32.4783 14.483 32.9137 14.8049 33.4422 14.7117C33.5151 14.6984 33.6145 14.679 33.6646 14.7142C34.4951 15.3044 35.5144 15.3396 36.4377 15.6548C37.397 15.982 38.3786 16.2455 39.3574 16.5118C39.8988 16.6592 40.4546 16.7346 40.9794 16.9608C41.5986 17.2275 42.2941 17.1894 42.9394 17.4061C43.7359 17.6732 44.5705 17.855 45.3882 18.0207C46.1872 18.1827 46.9833 18.362 47.7719 18.5592C49.3098 18.9432 50.8962 19.1175 52.4014 19.6473C52.7995 19.7877 53.2286 19.6991 53.6643 19.8681C54.2517 20.0963 55.0312 19.8913 55.5643 20.1779C56.1528 20.4939 56.8359 20.0789 57.3217 20.5834C58.4877 20.5503 59.5837 21.0357 60.748 21.0469C61.0938 21.0498 61.438 21.1894 61.7839 21.2606C62.1662 21.3397 62.5481 21.4205 62.9329 21.4847C63.2825 21.5435 63.6872 21.343 63.968 21.7133C64.5595 21.6342 65.1145 21.8811 65.6832 21.9163C66.4118 21.9614 67.0993 22.3321 67.8466 22.1652C68.2591 22.625 68.9338 22.1594 69.3683 22.596C69.4441 22.6722 69.6558 22.6126 69.8049 22.6175C70.2365 22.6316 70.6515 22.6022 71.0778 22.8209C71.4427 23.0081 71.9119 22.7319 72.3502 23.0371C72.6028 23.2127 73.0771 23.0686 73.4354 23.0686C73.5841 23.2177 73.7175 23.3507 73.8546 23.4882C74.4709 23.069 74.9808 23.3482 75.4782 23.7363C75.7963 23.3548 76.3062 23.4145 76.5957 23.5743C76.9685 23.7794 77.3065 23.7334 77.6586 23.7396C78.6866 23.7578 79.6836 24.0942 80.729 23.9968C80.9979 23.9716 81.294 24.2433 81.5695 24.3746C81.7074 24.3216 81.8627 24.2379 82.028 24.2031C82.4902 24.1053 82.9305 24.3439 83.4288 24.2354C83.8418 24.1455 84.3554 24.3116 84.7646 24.4964C84.9899 24.5978 85.067 24.4437 85.1743 24.4533C85.7827 24.5084 86.4222 24.2056 87.0108 24.6343C87.1587 24.7416 87.4511 24.6504 87.6769 24.6504C89.2956 24.6504 90.9143 24.6455 92.533 24.6546C92.8979 24.6562 93.2872 24.6368 93.6202 24.7544C93.9624 24.8753 94.1682 24.4802 94.4963 24.6405C94.7083 24.7445 94.966 24.7548 95.2431 24.8153C95.4899 24.7685 95.7998 24.6637 96.1112 24.6583C97.3153 24.6384 98.5252 24.5837 99.7239 24.6674C101.216 24.7718 102.671 24.4512 104.147 24.3824C105.21 24.3332 106.256 23.8962 107.393 23.6116C107.602 23.6882 107.919 23.8046 108.26 23.9297C108.3 23.8945 108.38 23.8233 108.478 23.7367C108.683 23.984 108.888 24.2304 109.128 24.5191C108.488 24.6823 107.952 24.819 107.323 24.9797C107.486 25.2079 107.587 25.35 107.709 25.5215H108.874C109.019 25.6677 109.126 25.7746 109.314 25.9626C109.055 26.1556 108.796 26.3487 108.498 26.5715C108.722 26.6585 108.851 26.7086 108.993 26.7637C109.13 27.3891 108.72 27.7644 108.346 28.1517C108.418 28.2308 108.488 28.3099 108.505 28.3298C108.233 28.5982 107.971 28.8571 107.657 29.1665C107.358 29.0948 106.987 28.7042 106.542 29.0472C106.613 29.1271 106.684 29.2071 106.818 29.3578C106.325 29.2783 105.896 29.2087 105.467 29.1395C105.454 29.1963 105.439 29.2543 105.425 29.3114C105.634 29.3616 105.842 29.4117 106.117 29.4775C105.835 29.6237 105.607 29.7426 105.311 29.8963C105.247 29.7646 105.192 29.6515 105.086 29.4328C104.906 29.422 104.629 29.4055 104.29 29.3856C104.385 29.6101 104.454 29.7737 104.581 30.0727C104.306 30.0727 104.129 30.0852 103.955 30.0707C102.695 29.9659 101.475 30.3942 100.208 30.3159C98.9324 30.2372 97.6471 30.3333 96.3701 30.2703C96.0984 30.2571 95.9323 30.6795 95.6134 30.3701C95.5148 30.2745 95.1221 30.484 95.0215 30.3879C94.6578 30.0417 94.5302 30.5681 94.2378 30.5466C93.73 30.5089 93.2885 30.2558 92.7512 30.2765C91.135 30.3382 89.5143 30.3188 87.896 30.2881C87.2863 30.2769 86.6803 30.1179 86.0694 30.081C85.4427 30.0433 84.8122 30.0727 84.1856 30.0276C85.1076 29.7704 87.2813 29.7994 88.2646 29.9356C88.096 29.8851 87.9279 29.8346 87.7593 29.784C87.809 29.7298 87.8591 29.6755 87.9088 29.6208C87.2333 29.6208 86.5548 29.5836 85.8825 29.6295C84.9183 29.6958 84.0058 29.2282 83.0391 29.3951C82.7007 29.0944 82.2106 29.3106 81.9079 29.1383C81.4253 28.8641 81.0202 29.3765 80.5261 29.0836C80.1529 28.8624 79.5991 28.9461 79.0246 28.8832C78.9799 28.8467 78.8482 28.7394 78.7164 28.6321C78.7401 28.5824 78.7637 28.5327 78.7869 28.483C79.8766 28.5978 80.9664 28.7125 82.1108 28.8335C82.1436 28.8049 82.255 28.7079 82.3664 28.611C82.2459 28.4905 82.1394 28.384 82.033 28.278C81.9232 28.3596 81.8134 28.4412 81.5761 28.6181C81.5119 28.3584 81.4522 28.1169 81.3926 27.8754L81.1594 28.073C81.0567 28.1239 80.9536 28.1753 80.8239 28.2395C80.8003 28.1256 80.7792 28.0224 80.7485 27.8742C80.2979 27.764 79.8182 27.6472 79.3332 27.5287C79.2359 27.735 79.163 27.8895 79.0801 28.0651C78.6858 27.9214 78.3006 27.7814 77.9286 27.6459C77.8181 27.7114 77.6983 27.783 77.5314 27.882C77.304 27.5942 77.0973 27.332 76.8902 27.0698C76.7664 27.1932 76.713 27.2466 76.6351 27.3245C76.4429 27.2305 76.2408 27.1319 76.0262 27.0271C76.1397 26.9169 76.2474 26.8126 76.365 26.6987C76.4383 26.7624 76.5162 26.8304 76.6355 26.9343C76.8281 26.8465 77.0456 26.7467 77.2887 26.6357C77.3508 26.8134 77.3964 26.9447 77.4453 27.0843C77.7617 26.977 78.0753 26.8706 78.4228 26.7525C78.8627 27.1042 79.4347 26.8121 80.005 26.9389C80.126 27.0536 80.2854 27.2048 80.4453 27.3556C80.7589 26.9455 81.2178 27.2371 81.6502 27.0897C81.6565 26.9894 81.6643 26.861 81.678 26.6324C81.5177 26.7575 81.4436 26.8146 81.3089 26.9198C81.1988 26.7558 81.0782 26.5769 80.9507 26.3872C80.7597 26.5897 80.6317 26.7256 80.4847 26.8817C80.2461 26.7595 80.0104 26.6386 79.7623 26.511C79.433 26.8353 79.1099 26.6506 78.7413 26.4708C78.4311 26.3192 78.0653 26.2816 77.7008 26.1879C77.6263 26.0566 77.5335 25.8939 77.3483 25.5683C77.2133 25.8955 77.1524 26.043 77.0609 26.265C76.7312 26.2169 76.3799 26.166 76.0287 26.1138C75.6741 26.0612 75.2537 26.108 74.9812 25.9299C74.6154 25.6901 74.388 26.2447 74.0153 25.9514C73.7655 25.7547 73.3347 25.7878 72.988 25.7187C72.8294 25.9502 72.7109 26.1237 72.4889 26.4493C72.9085 26.4116 73.1633 26.3884 73.5493 26.3532C73.5278 26.3333 73.6292 26.4274 73.7589 26.5471C73.7013 26.6212 73.6446 26.6937 73.5708 26.7894C73.6247 26.8552 73.6872 26.9314 73.7481 27.0056C73.7088 27.0458 73.6628 27.1319 73.6226 27.129C73.2933 27.1054 72.9657 27.0445 72.6364 27.0362C72.2827 27.0279 71.8432 27.2023 71.593 27.0487C71.2132 26.8155 70.8624 26.9973 70.4834 26.8846C70.3512 26.7591 70.1901 26.6055 69.9809 26.4066C69.8144 26.5263 69.6434 26.6494 69.3845 26.8353C70.5256 27.3833 71.7078 27.4334 73.0133 27.701C72.4082 27.882 71.9343 27.8468 71.4944 27.7893C71.2327 27.7553 70.9941 27.5532 70.6805 27.5768C70.4316 27.5958 70.0787 27.3987 69.9416 27.5088C69.5924 27.7892 69.4972 27.3543 69.2681 27.3597C68.9674 27.3668 68.6621 27.3904 68.366 27.3539C68.0164 27.3113 67.6772 27.192 67.3284 27.141C67.0111 27.0946 66.7096 27.0478 66.3935 26.9509C65.8882 26.7964 65.3009 26.9099 64.7442 27.0855C65.1199 27.1166 65.4951 27.1481 66.0373 27.1936C64.9907 27.6509 64.1606 27.0342 63.3057 27.1352C63.1388 26.9078 63.0046 26.6465 62.7966 26.4729C62.6918 26.3855 62.4541 26.458 62.0391 26.458C62.4085 26.639 62.5502 26.7082 62.6939 26.7786C62.6413 26.825 62.5895 26.9074 62.5456 26.9033C62.083 26.8623 61.6232 26.9927 61.1556 26.7086C60.8109 26.499 60.3392 26.7318 59.8823 26.5172C59.3542 26.2691 58.682 26.3462 58.0847 26.2227C57.4973 26.101 56.9046 26.0152 56.321 25.8562C55.4673 25.6238 54.5727 25.543 53.7173 25.3156C52.8641 25.0891 51.945 25.1781 51.1373 24.7304C50.7305 24.5046 50.2476 24.6359 49.7833 24.4616C48.8016 24.0937 47.7396 23.943 46.7161 23.6816C46.1698 23.5424 45.6537 23.3072 45.0705 23.2861C44.3725 23.2604 43.9157 22.9514 43.6241 22.3835C43.5441 22.5471 43.4762 22.6871 43.4025 22.8383C43.3188 22.7637 43.2405 22.6942 43.1618 22.6242C43.0856 22.6925 43.0061 22.7637 43.0086 22.7613C42.5919 22.6262 42.2262 22.4059 41.867 22.4162C41.3762 22.4299 41.0846 22.0973 40.4492 21.9706C39.4522 22.1768 38.4544 21.2428 37.2197 21.2374C37.1899 21.0365 37.1584 20.829 37.0979 20.4248C36.9202 20.7346 36.8142 20.9197 36.7852 20.9703C35.7721 20.8162 34.9901 20.4467 34.2337 20.0056V19.6929C34.0647 19.7765 33.9401 19.8735 33.8021 19.8979C33.6195 19.9302 33.4273 19.9062 33.2061 19.9062C33.0988 19.7823 32.9762 19.6415 32.8362 19.48H31.8417C31.7837 19.3168 31.7373 19.1855 31.6793 19.0219C31.5671 19.0931 31.4611 19.1606 31.2883 19.2704C31.0676 19.0716 30.8311 18.8582 30.6418 18.6876C30.6153 18.4391 30.5966 18.2659 30.5631 17.9549C30.3233 18.3144 30.1679 18.5468 30.0039 18.7928C29.3288 18.5265 28.7149 18.1309 27.9598 17.9955C27.2938 17.8762 26.7458 17.3535 26.052 17.1555C25.6693 17.0461 25.3595 16.6419 24.8728 16.7429C24.6396 16.3664 24.225 16.332 23.8617 16.1846C23.4073 16.0007 22.8101 16.115 22.4924 15.7008C22.1718 15.2837 21.5194 15.5219 21.3053 14.995C20.8389 14.9424 20.4636 14.616 20.0428 14.5158C19.5578 14.4006 19.1841 14.203 18.8234 13.8887C18.7074 13.7876 18.4804 13.8141 18.234 13.769Z" fill="black"/>
<path fill-rule="evenodd" clip-rule="evenodd" d="M118.891 21.8566C118.847 21.9573 118.708 22.1225 118.746 22.207C119.153 23.0942 118.905 23.9715 118.73 24.8467C118.586 25.5674 118.474 26.3225 118.045 26.9297C117.25 28.0543 116.759 29.4398 115.416 30.1141C115.378 30.8303 114.345 30.7222 114.312 31.4437C113.565 31.8061 113.113 32.5152 112.477 33.0077C112.077 33.3171 111.688 33.6369 111.312 33.9745C111.167 34.1041 110.926 34.1257 110.662 34.2209C110.58 34.3895 110.457 34.6389 110.303 34.9532C110.021 35.1326 109.669 35.3558 109.265 35.6126C109.255 35.804 109.24 36.0571 109.226 36.3271C109.096 36.3744 108.965 36.422 108.835 36.4696C108.619 36.9058 109.079 36.7881 109.217 36.9348C108.946 37.5238 108.465 37.8974 107.898 38.2283C107.536 37.9521 107.169 37.6725 106.767 37.3647V35.8525C106.612 35.6893 106.458 35.5281 106.297 35.3587C106.39 34.6438 106.166 33.9107 106.511 33.1896C106.677 32.8433 106.726 32.4328 107.042 32.1723C107.244 32.0062 107.166 31.6098 107.58 31.5891C107.671 31.5845 107.736 31.1592 107.823 30.9313C107.995 30.4786 108.391 30.1916 108.698 29.8528C109.43 29.0451 110.175 28.232 111.015 27.5444C111.85 26.8631 112.592 26.0587 113.564 25.543C113.848 25.3922 114.06 25.1073 114.313 24.8939C114.558 24.6877 114.815 24.4942 115.135 24.2408C114.736 24.0684 114.334 23.8957 113.875 23.6973C113.818 23.8497 113.773 23.9728 113.725 24.1016C112.741 24.01 111.88 23.4355 110.862 23.2413V22.7372C110.092 22.4974 109.362 22.27 108.632 22.0426C108.329 21.9432 108.049 22.3955 107.658 22.0484C107.816 21.9747 107.966 21.9042 108.116 21.8342C107.576 21.9337 107.112 21.0125 106.536 21.8144C105.823 20.9793 104.524 21.3745 103.925 20.3837C103.866 20.4367 103.787 20.508 103.68 20.6053C103.114 20.3908 102.544 20.0958 101.939 19.967C101.31 19.8324 101.111 19.1718 100.352 19.0065C99.6037 19.1229 98.7545 18.91 98.0342 18.3094C97.9278 17.9863 97.83 17.6885 97.7253 17.3708C97.782 17.2755 97.8491 17.1625 97.9158 17.0494C97.7832 16.916 97.6499 16.7831 97.4995 16.6327C97.8035 16.4799 98.1013 16.3303 98.4021 16.1792C98.2608 16.0383 98.1279 15.9054 97.9609 15.7384C98.1589 15.6225 98.3495 15.511 98.598 15.3652C99.0544 15.919 99.7689 15.5131 100.397 15.7956C101.28 16.1928 102.307 16.2591 103.256 16.525C104.364 16.8352 105.454 17.2118 106.554 17.5522C107.725 17.9142 108.893 18.2808 110.088 18.5674C111.068 18.8019 111.985 19.2757 112.986 19.4671C113.324 19.8809 113.934 19.4923 114.272 19.9057C115.122 19.8183 115.82 20.4255 116.654 20.4313C116.82 20.4326 116.983 20.5494 117.153 20.58C117.913 20.7176 118.627 20.9151 118.891 21.8566Z" fill="black"/>
</svg>
