<svg width="156" height="168" viewBox="0 0 156 168" fill="none" xmlns="http://www.w3.org/2000/svg">
<path d="M68.9905 167.313C65.3613 167.11 62.1353 165.894 59.5142 163.26C57.9012 161.638 56.3891 159.814 55.0784 157.788C50.5419 150.796 45.8038 144.007 40.0575 137.927C39.9567 137.826 39.9567 137.826 39.8558 137.724C29.2705 124.248 18.282 111.075 8.50325 96.9899C5.07566 92.0248 2.75698 86.6544 0.740736 80.8787C-0.56982 77.028 -0.166572 73.2788 2.1521 69.9352C3.56348 67.9087 5.27729 65.9835 7.19272 64.4635C20.3991 53.8239 32.5974 42.0698 45.0981 30.5182C53.6671 22.7159 62.4377 15.2176 71.2084 7.71918C73.3256 5.89528 75.644 4.17269 78.0634 2.75408C84.7171 -1.29909 91.3707 -0.893768 97.3189 4.07135C99.9396 6.19927 102.259 8.7325 104.275 11.4684C112.34 22.108 119.598 33.2541 126.352 44.8057C130.385 51.6961 134.619 58.5864 138.853 65.2742C143.491 72.5697 147.725 80.1696 151.354 87.9718C152.967 91.4172 154.379 94.9634 155.084 98.7126C155.891 103.07 155.084 107.123 152.362 110.669C150.548 112.899 148.532 115.128 146.313 116.851C140.97 121.106 135.325 125.058 129.78 129.213C123.53 133.773 117.179 138.231 111.03 142.892C101.956 149.884 92.2782 156.065 82.5999 162.246C79.8783 163.969 76.8537 165.083 73.8298 166.299C72.4181 166.907 70.6032 167.009 68.9905 167.313Z" fill="#55BBDA"/>
<mask id="mask0_391_2" style="mask-type:alpha" maskUnits="userSpaceOnUse" x="0" y="0" width="156" height="168">
<path d="M68.9905 167.313C65.3613 167.11 62.1353 165.894 59.5142 163.26C57.9012 161.638 56.3891 159.814 55.0784 157.788C50.5419 150.796 45.8038 144.007 40.0575 137.927C39.9567 137.826 39.9567 137.826 39.8558 137.724C29.2705 124.248 18.282 111.075 8.50325 96.9899C5.07566 92.0248 2.75698 86.6544 0.740736 80.8787C-0.56982 77.028 -0.166572 73.2788 2.1521 69.9352C3.56348 67.9087 5.27729 65.9835 7.19272 64.4635C20.3991 53.8239 32.5974 42.0698 45.0981 30.5182C53.6671 22.7159 62.4377 15.2176 71.2084 7.71918C73.3256 5.89528 75.644 4.17269 78.0634 2.75408C84.7171 -1.29909 91.3707 -0.893768 97.3189 4.07135C99.9396 6.19927 102.259 8.7325 104.275 11.4684C112.34 22.108 119.598 33.2541 126.352 44.8057C130.385 51.6961 134.619 58.5864 138.853 65.2742C143.491 72.5697 147.725 80.1696 151.354 87.9718C152.967 91.4172 154.379 94.9634 155.084 98.7126C155.891 103.07 155.084 107.123 152.362 110.669C150.548 112.899 148.532 115.128 146.313 116.851C140.97 121.106 135.325 125.058 129.78 129.213C123.53 133.773 117.179 138.231 111.03 142.892C101.956 149.884 92.2782 156.065 82.5999 162.246C79.8783 163.969 76.8537 165.083 73.8298 166.299C72.4181 166.907 70.6032 167.009 68.9905 167.313Z" fill="#55BBDA"/>
</mask>
<g mask="url(#mask0_391_2)">
<path d="M164.561 174C163.25 173.595 162.242 172.581 161.335 171.467C159.52 169.238 158.411 166.603 157.504 163.969C155.285 157.382 154.076 150.492 153.269 143.601C152.665 138.231 152.262 132.759 151.656 127.389C151.656 126.983 151.555 126.68 151.354 125.768C150.548 126.983 150.144 127.693 149.64 128.402C143.894 137.42 137.644 146.033 129.881 153.532C127.059 156.268 123.933 158.801 120.707 161.03C118.792 162.347 116.473 163.36 114.154 163.969C109.013 165.388 104.678 163.26 102.36 158.497C100.746 155.254 100.142 151.708 100.142 148.161C100.142 144.007 100.444 139.954 100.646 135.799C100.646 135.292 100.746 134.786 100.847 133.671C100.041 134.685 99.5364 135.292 99.0328 135.901C94.8995 141.473 90.4633 146.844 85.5235 151.708C82.1967 154.951 78.7696 157.99 74.7365 160.321C72.4181 161.739 69.9987 162.753 67.3776 163.26C62.9418 163.969 59.2118 162.144 57.1955 158.091C55.7841 155.254 55.2801 152.113 55.0785 148.972C54.5744 141.068 55.5825 133.266 56.6915 125.464C57.0947 122.93 57.498 120.397 57.5988 117.662C57.0947 118.371 56.5907 119.08 56.1874 119.789C51.5501 127.287 46.8119 134.482 40.9648 141.068C38.4445 143.905 35.7225 146.54 32.799 148.972C31.0852 150.391 28.9682 151.505 26.9519 152.214C22.617 153.735 18.7861 152.316 16.2658 148.465C14.6529 146.033 13.9472 143.298 13.4431 140.561C12.4349 134.482 12.3342 128.402 12.939 122.424C13.5439 115.534 14.4512 108.542 15.1569 101.651C15.2577 100.841 15.3585 100.03 15.0561 99.0164C14.552 99.6247 14.0479 100.233 13.5439 100.942C8.30164 108.137 2.55537 114.925 -4.19904 120.802C-6.71934 122.93 -9.44127 124.855 -12.1632 126.68C-12.9697 127.186 -13.9778 127.896 -15.0867 126.68C-14.7843 126.274 -14.5827 125.869 -14.1794 125.666C-9.64289 122.727 -5.71122 118.877 -1.98117 115.027C4.67243 108.137 10.5196 100.638 15.7618 92.6331C16.4675 91.5187 16.9715 90.2013 17.2739 88.8839C21.6089 66.9967 27.3552 45.515 36.1258 24.9451C38.7469 18.8654 41.5697 12.9883 45.2997 7.61788C46.8119 5.38863 48.5257 3.36204 50.3403 1.43679C51.4492 0.0181804 52.9614 -1.09644 54.6752 -0.285808C56.4898 0.626154 56.5907 2.55141 56.2882 4.17268C55.3809 8.83378 54.5744 13.5963 53.1631 18.1561C45.8038 42.9817 35.3193 66.3888 21.7097 88.3771C20.2983 90.6066 19.391 92.9369 18.9878 95.5717C17.3748 105.198 15.8626 114.925 15.4593 124.754C15.2577 130.125 15.1569 135.495 16.3666 140.764C16.7699 142.487 17.3748 144.21 18.1812 145.729C20.0967 149.377 23.2219 150.593 26.8511 148.668C28.9682 147.654 31.0852 146.236 32.799 144.514C36.3275 140.967 39.6542 137.217 42.7794 133.266C49.5338 124.552 55.0785 115.027 60.2199 105.299C60.6231 104.488 61.0264 103.475 61.2281 102.563C65.563 83.412 71.6117 64.6661 77.4589 45.9203C81.7934 32.1395 86.2297 18.2574 91.774 4.88198C92.8834 2.14609 94.1934 -0.589795 95.605 -3.22435C96.0083 -4.03498 96.6127 -4.84562 97.4199 -5.45359C98.6296 -6.46688 100.243 -5.96024 100.545 -4.33897C100.746 -3.22435 100.746 -2.10973 100.746 -0.995109C100.243 5.9966 98.5286 12.7856 96.9157 19.5747C89.8588 49.6695 78.4666 78.2446 64.2524 105.603C63.3451 107.325 62.6394 109.15 62.337 111.075C60.8248 119.08 59.4134 126.983 58.2037 134.989C57.498 139.954 57.1955 145.02 57.9012 149.985C58.2037 151.91 58.6069 153.835 59.3126 155.66C60.8248 159.51 63.7484 160.929 67.68 159.916C69.6965 159.409 71.7126 158.497 73.4266 157.382C76.3502 155.356 79.1728 153.228 81.7934 150.897C89.4556 143.905 95.706 135.799 101.452 127.287C101.956 126.578 102.259 125.666 102.46 124.855C107.299 99.9285 114.356 75.6098 122.622 51.5947C127.059 38.6246 131.796 25.8571 137.341 13.2923C138.45 10.8604 139.66 8.42848 140.97 6.09793C141.676 4.78065 142.583 3.46337 144.398 3.97001C146.212 4.47666 146.313 6.09793 146.212 7.51652C145.91 12.0763 145.709 16.6361 145.003 21.0946C140.466 51.2907 131.192 79.9666 117.078 107.022C113.852 113.304 110.021 119.181 106.593 125.362C106.09 126.376 105.485 127.389 105.283 128.402C104.174 134.989 103.166 141.575 103.67 148.263C103.872 150.695 104.275 153.228 105.081 155.66C106.694 160.321 110.021 161.841 114.659 160.118C116.675 159.409 118.691 158.395 120.405 157.079C123.631 154.545 126.756 151.91 129.679 148.972C137.946 140.461 144.7 130.834 150.649 120.499C151.253 119.384 151.455 118.269 151.455 117.053C151.354 104.286 154.177 92.1263 158.814 80.3719C159.822 77.9401 161.133 75.5083 162.544 73.2788C163.25 72.0629 164.359 71.05 165.568 70.2394C167.585 68.922 169.803 69.7326 170.307 72.0629C170.71 73.9886 170.811 76.1166 170.609 78.0416C170.105 83.5135 168.593 88.8839 166.779 94.0513C163.855 102.766 159.923 110.974 155.588 119.08C155.084 119.992 154.58 121.208 154.58 122.221C155.084 136.205 155.992 150.086 159.419 163.665C159.822 165.488 160.427 167.313 161.234 168.934C161.939 170.555 163.25 172.176 164.561 174ZM142.987 8.83378C134.72 20.892 107.198 105.603 107.501 116.952C114.053 108.339 127.159 78.0416 133.51 56.5598C138.148 40.9552 141.576 25.1478 142.987 8.83378ZM54.0704 2.45008C53.8688 2.34875 53.5663 2.24742 53.3647 2.14609C52.7598 2.75406 51.9533 3.15938 51.4492 3.86869C49.9371 5.79394 48.3241 7.61788 47.1143 9.74574C44.6948 13.9002 42.3761 18.0547 40.4608 22.4119C33.3031 38.1179 28.1616 54.7359 24.0283 71.6576C23.121 75.2045 22.4154 78.6499 21.6089 82.1961C21.7097 82.2976 21.9113 82.2976 22.0121 82.3991C22.5162 81.5878 23.0202 80.7772 23.5243 79.9666C32.799 64.0582 40.4608 47.4402 46.7111 30.1129C49.5338 22.3106 52.2558 14.6096 53.6671 6.40192C53.9695 5.18596 53.9695 3.76735 54.0704 2.45008ZM67.4784 90.8089C68.8897 87.8703 70.2 84.9317 71.6117 82.0946C82.8019 57.7757 91.3707 32.5448 96.8147 6.30058C97.3189 4.07134 97.6212 1.8421 98.0244 -0.387136C93.1856 5.38863 70.402 73.7856 67.4784 90.8089ZM167.383 73.178C161.939 76.1166 154.58 101.854 154.882 111.278C155.084 111.075 155.285 110.974 155.386 110.771C160.225 100.942 164.258 90.9104 166.476 80.1696C166.98 77.9401 167.081 75.8121 167.383 73.178Z" fill="black"/>
</g>
</svg>
